<svg xmlns="http://www.w3.org/2000/svg" viewBox="0 0 1254 1254" role="img">

  <!-- Head / crest / beak -->
  <path fill="#00006c" d="
    M 523 474
    L 523 382
    C 523 282 602 207 704 207
    C 766 207 821 239 852 306
    C 903 309 940 332 954 356
    C 882 362 838 388 836 455
    L 836 488
    L 776 474
    C 775 421 792 381 824 354
    C 799 340 782 321 772 295
    C 751 281 728 273 702 273
    C 637 273 584 322 584 381
    L 584 497
    Z"/>

  <!-- Eye -->
  <circle cx="720" cy="352" r="31" fill="#00006c"/>

  <!-- Wings / shoulders / central M -->
  <path fill="#00006c" d="
    M 493 500
    C 456 502 421 525 405 562
    C 393 591 398 625 398 681
    C 398 785 333 853 230 870
    C 226 870 226 876 226 882
    L 226 915
    C 226 925 230 929 239 931
    C 360 953 467 896 523 815
    L 523 638
    C 523 631 531 629 536 633
    L 632 720
    C 635 723 639 723 642 720
    L 738 633
    C 744 628 753 632 753 640
    L 753 815
    C 809 899 916 954 1037 931
    C 1045 930 1049 925 1049 916
    L 1049 882
    C 1049 876 1046 870 1040 870
    C 937 853 874 786 874 681
    C 874 625 879 591 866 562
    C 851 525 815 502 778 500
    C 772 499 766 500 762 504
    L 637 609
    L 510 504
    C 505 500 500 499 493 500
    Z"/>

  <!-- Lower body / tail -->
  <path fill="#00006c" d="
    M 584 798
    C 562 907 528 991 498 1033
    C 492 1043 498 1052 512 1056
    C 540 1065 566 1054 584 1040
    C 597 1070 612 1088 633 1090
    C 657 1092 674 1072 684 1040
    C 703 1054 732 1064 759 1055
    C 772 1051 777 1042 770 1032
    C 741 988 706 904 687 800
    C 686 794 678 792 673 796
    L 641 827
    C 637 831 631 831 627 827
    L 595 797
    C 591 793 585 794 584 798
    Z"/>
</svg>
