<?xml version="1.0" encoding="UTF-8"?>
<svg id="Layer_1" xmlns="http://www.w3.org/2000/svg" xmlns:xlink="http://www.w3.org/1999/xlink" version="1.1" viewBox="0 0 595.28 841.89">
  <!-- Generator: Adobe Illustrator 30.3.0, SVG Export Plug-In . SVG Version: 2.1.3 Build 182)  -->
  <defs>
    <style>
      .st0 {
        fill: #f5f6fb;
      }

      .st1 {
        fill: #682b84;
      }

      .st2 {
        fill: #2a4983;
      }

      .st3 {
        fill: #996ea0;
      }

      .st4 {
        fill: #41448b;
      }

      .st5 {
        fill: #f09abe;
      }

      .st6 {
        fill: #33286e;
      }

      .st7 {
        fill: #d8cce5;
      }

      .st8 {
        fill: #a19fcf;
      }

      .st9 {
        fill: #f9f8fb;
      }

      .st10 {
        fill: #bfe6f1;
      }

      .st11 {
        fill: #72cee6;
      }

      .st12 {
        fill: #b77eb7;
      }

      .st13 {
        fill: #7389b4;
      }

      .st14 {
        fill: #e7f1e8;
      }

      .st15 {
        fill: #bd3e97;
      }

      .st16 {
        fill: #c1b6c7;
      }

      .st17 {
        fill: #342c7c;
      }

      .st18 {
        fill: #ede3f0;
      }

      .st19 {
        fill: #eaeff9;
      }

      .st20 {
        fill: #d194b1;
      }

      .st21 {
        fill: #94a0bd;
      }

      .st22 {
        fill: #cd4097;
      }

      .st23 {
        fill: #fefafc;
      }

      .st24 {
        fill: url(#linear-gradient2);
      }

      .st25 {
        fill: url(#linear-gradient1);
      }

      .st26 {
        fill: url(#linear-gradient9);
      }

      .st27 {
        fill: url(#linear-gradient3);
      }

      .st28 {
        fill: url(#linear-gradient6);
      }

      .st29 {
        fill: url(#linear-gradient8);
      }

      .st30 {
        fill: url(#linear-gradient7);
      }

      .st31 {
        fill: url(#linear-gradient5);
      }

      .st32 {
        fill: url(#linear-gradient4);
      }

      .st33 {
        fill: #20205a;
      }

      .st34 {
        fill: #262763;
      }

      .st35 {
        fill: #aaa9d1;
      }

      .st36 {
        fill: #332a77;
      }

      .st37 {
        fill: #15489c;
      }

      .st38 {
        fill: #125b77;
      }

      .st39 {
        fill: #899ace;
      }

      .st40 {
        fill: #2b276c;
      }

      .st41 {
        fill: #7d3c97;
      }

      .st42 {
        fill: #9f5a90;
      }

      .st43 {
        fill: #443e63;
      }

      .st44 {
        fill: #1f376a;
      }

      .st45 {
        fill: #cfc0df;
      }

      .st46 {
        fill: #69507c;
      }

      .st47 {
        fill: #2e6cb5;
      }

      .st48 {
        fill: #6d60aa;
      }

      .st49 {
        fill: #f8f8fb;
      }

      .st50 {
        fill: #aaa0ce;
      }

      .st51 {
        fill: url(#linear-gradient10);
      }

      .st52 {
        fill: #8a3c96;
      }

      .st53 {
        fill: #1f4491;
      }

      .st54 {
        fill: #4fb855;
      }

      .st55 {
        fill: #8f58a4;
      }

      .st56 {
        fill: #573996;
      }

      .st57 {
        fill: #5c84ae;
      }

      .st58 {
        fill: #b2c5e6;
      }

      .st59 {
        fill: #573a97;
      }

      .st60 {
        fill: #d4c9e3;
      }

      .st61 {
        fill: #23225b;
      }

      .st62 {
        fill: #3b2e87;
      }

      .st63 {
        fill: #e0a9bf;
      }

      .st64 {
        fill: #6256a5;
      }

      .st65 {
        fill: #b173b1;
      }

      .st66 {
        fill: #488ecb;
      }

      .st67 {
        fill: #2e76bc;
      }

      .st68 {
        fill: #fcf0f6;
      }

      .st69 {
        fill: #d37eb4;
      }

      .st70 {
        fill: #402f91;
      }

      .st71 {
        fill: #3d3091;
      }

      .st72 {
        fill: #744199;
      }

      .st73 {
        fill: #697994;
      }

      .st74 {
        fill: #f6f7f9;
      }

      .st75 {
        fill: #5894cf;
      }

      .st76 {
        fill: #8e89c2;
      }

      .st77 {
        fill: url(#linear-gradient);
      }

      .st78 {
        fill: #282468;
      }

      .st79 {
        fill: #7a3f98;
      }

      .st80 {
        fill: #372c78;
      }

      .st81 {
        fill: #7266ae;
      }

      .st82 {
        fill: #a88cc1;
      }

      .st83 {
        fill: #243e83;
      }

      .st84 {
        fill: #3c86c7;
      }

      .st85 {
        fill: #f8c9de;
      }

      .st86 {
        fill: #b0b0cd;
      }

      .st87 {
        fill: #faeef5;
      }

      .st88 {
        fill: #794b9e;
      }

      .st89 {
        fill: #099c49;
      }

      .st90 {
        fill: #20244d;
      }

      .st91 {
        fill: #9f6f99;
      }

      .st92 {
        fill: #6c72b5;
      }

      .st93 {
        fill: #fefffe;
      }

      .st94 {
        fill: #2c9cd8;
      }

      .st95 {
        fill: #9e6f99;
      }

      .st96 {
        fill: #a65ba4;
      }

      .st97 {
        fill: #624da0;
      }

      .st98 {
        fill: #f8f7fa;
      }

      .st99 {
        fill: #d57fb4;
      }

      .st100 {
        fill: #3894d1;
      }

      .st101 {
        fill: #4fb849;
      }

      .st102 {
        fill: #ad99c9;
      }

      .st103 {
        fill: #d591bf;
      }

      .st104 {
        fill: #6359a6;
      }

      .st105 {
        fill: #74c2ec;
      }

      .st106 {
        fill: #504b9f;
      }

      .st107 {
        fill: #60439b;
      }

      .st108 {
        fill: #67618c;
      }

      .st109 {
        fill: #49479d;
      }

      .st110 {
        fill: #5f3795;
      }

      .st111 {
        fill: #c693c2;
      }

      .st112 {
        fill: #ae5977;
      }

      .st113 {
        fill: #a990a8;
      }

      .st114 {
        fill: #6797cf;
      }

      .st115 {
        fill: #a194c7;
      }

      .st116 {
        fill: #1b70b8;
      }

      .st117 {
        fill: #595f7a;
      }

      .st118 {
        fill: #864a9d;
      }

      .st119 {
        fill: #c6abd0;
      }

      .st120 {
        fill: #eed4e6;
      }

      .st121 {
        fill: #d1c5e1;
      }

      .st122 {
        fill: #813b56;
      }

      .st123 {
        fill: #c5b69a;
      }

      .st124 {
        fill: #7cc3ec;
      }

      .st125 {
        fill: #833b96;
      }

      .st126 {
        fill: #884a9d;
      }

      .st127 {
        fill: #fff;
      }

      .st128 {
        fill: #c35ca3;
      }

      .st129 {
        fill: #a1b5c9;
      }

      .st130 {
        fill: #78cfe0;
      }

      .st131 {
        fill: #c9c8e4;
      }

      .st132 {
        fill: #843d97;
      }

      .st133 {
        fill: #463b82;
      }

      .st134 {
        fill: #3055a5;
      }

      .st135 {
        fill: #442f91;
      }

      .st136 {
        fill: #fffefe;
      }

      .st137 {
        fill: #c87daa;
      }

      .st138 {
        fill: #53a4da;
      }

      .st139 {
        fill: #b5cae9;
      }

      .st140 {
        fill: #6e7499;
      }

      .st141 {
        fill: #7765ac;
      }

      .st142 {
        fill: #73bf44;
      }

      .st143 {
        fill: #7568ae;
      }

      .st144 {
        fill: #8f87bf;
      }

      .st145 {
        fill: #a154a1;
      }

      .st146 {
        fill: #873e98;
      }

      .st147 {
        fill: #f8e0ed;
      }

      .st148 {
        fill: #e9bbd7;
      }

      .st149 {
        fill: #4dc8f3;
      }

      .st150 {
        fill: #b28cb1;
      }

      .st151 {
        fill: #ac97c8;
      }

      .st152 {
        fill: #4b2851;
      }

      .st153 {
        fill: #08708c;
      }

      .st154 {
        fill: #c6b3d7;
      }

      .st155 {
        fill: #a1dade;
      }

      .st156 {
        fill: #ccd5e8;
      }

      .st157 {
        fill: #693e98;
      }

      .st158 {
        fill: #7a6fb3;
      }

      .st159 {
        fill: #7b73b5;
      }

      .st160 {
        fill: #594a9e;
      }

      .st161 {
        fill: #6955a4;
      }

      .st162 {
        fill: #438aca;
      }

      .st163 {
        fill: #4c98d2;
      }

      .st164 {
        fill: #59c9e9;
      }

      .st165 {
        fill: #3455a5;
      }

      .st166 {
        fill: #fef8fb;
      }

      .st167 {
        fill: #787f9f;
      }

      .st168 {
        fill: #ab7db7;
      }

      .st169 {
        fill: #fef2f7;
      }

      .st170 {
        fill: #52266e;
      }

      .st171 {
        fill: #a291c5;
      }

      .st172 {
        fill: #dad5ea;
      }

      .st173 {
        fill: #2869b3;
      }

      .st174 {
        fill: #a855a1;
      }

      .st175 {
        fill: #43b649;
      }

      .st176 {
        fill: #faeff6;
      }

      .st177 {
        fill: #a377a5;
      }

      .st178 {
        fill: #f7c9de;
      }

      .st179 {
        fill: #9d70b1;
      }

      .st180 {
        fill: #aaa6d2;
      }

      .st181 {
        fill: #833a96;
      }

      .st182 {
        fill: #4b3393;
      }

      .st183 {
        fill: #264da1;
      }

      .st184 {
        fill: #3f9dd7;
      }

      .st185 {
        fill: #75449a;
      }

      .st186 {
        fill: #2e2870;
      }

      .st187 {
        fill: #718497;
      }

      .st188 {
        fill: #3379be;
      }

      .st189 {
        fill: #9f9cc0;
      }

      .st190 {
        fill: #f1a7c7;
      }

      .st191 {
        fill: #a5b7cf;
      }

      .st192 {
        fill: #7455a3;
      }

      .st193 {
        fill: #f6f3f9;
      }

      .st194 {
        fill: #d8e6f4;
      }

      .st195 {
        fill: #ebecf3;
      }

      .st196 {
        fill: #10123b;
      }

      .st197 {
        fill: #339ed9;
      }

      .st198 {
        fill: #6a4372;
      }

      .st199 {
        fill: #cebedd;
      }

      .st200 {
        fill: #2968b2;
      }

      .st201 {
        fill: #f3f1f8;
      }

      .st202 {
        fill: #362f88;
      }

      .st203 {
        fill: #713a96;
      }

      .st204 {
        fill: #6c9dd3;
      }

      .st205 {
        fill: #9ba5ca;
      }

      .st206 {
        fill: #e5b5ce;
      }

      .st207 {
        fill: #79bbe7;
      }

      .st208 {
        fill: #b66394;
      }

      .st209 {
        fill: #714299;
      }

      .st210 {
        fill: #284ba0;
      }

      .st211 {
        fill: #bd84af;
      }

      .st212 {
        fill: #f37c72;
      }

      .st213 {
        fill: #1866ac;
      }

      .st214 {
        fill: #a8a0c5;
      }

      .st215 {
        fill: #67789f;
      }

      .st216 {
        fill: #dbf0f5;
      }

      .st217 {
        fill: #645faa;
      }

      .st218 {
        fill: #7b6aaf;
      }

      .st219 {
        fill: #963e97;
      }

      .st220 {
        fill: #f5989f;
      }

      .st221 {
        fill: #b5b5cc;
      }

      .st222 {
        fill: #3668b2;
      }

      .st223 {
        fill: #53caf5;
      }

      .st224 {
        fill: #63b9e8;
      }

      .st225 {
        fill: #bda9d1;
      }

      .st226 {
        fill: #9e3092;
      }

      .st227 {
        fill: #269fd9;
      }

      .st228 {
        fill: #0c71af;
      }

      .st229 {
        fill: #529ed7;
      }

      .st230 {
        fill: #f8dfec;
      }
    </style>
    <linearGradient id="linear-gradient" x1="507.31" y1="356.11" x2="504.24" y2="409.75" gradientUnits="userSpaceOnUse">
      <stop offset="0" stop-color="#74cee4"/>
      <stop offset="1" stop-color="#3d9cd6"/>
    </linearGradient>
    <linearGradient id="linear-gradient1" x1="341.37" y1="176.93" x2="226.63" y2="207.3" gradientUnits="userSpaceOnUse">
      <stop offset="0" stop-color="#6fa8db"/>
      <stop offset="1" stop-color="#7c61aa"/>
    </linearGradient>
    <linearGradient id="linear-gradient2" x1="490.68" y1="373.28" x2="360.1" y2="497.94" gradientUnits="userSpaceOnUse">
      <stop offset="0" stop-color="#e1edf9"/>
      <stop offset="1" stop-color="#a8b8d7"/>
    </linearGradient>
    <linearGradient id="linear-gradient3" x1="233.55" y1="317.8" x2="151.7" y2="476.61" gradientUnits="userSpaceOnUse">
      <stop offset="0" stop-color="#eaa9cc"/>
      <stop offset=".65" stop-color="#ab7ab0"/>
      <stop offset="1" stop-color="#8485ae"/>
    </linearGradient>
    <linearGradient id="linear-gradient4" x1="193.82" y1="523.52" x2="391.78" y2="540.21" gradientUnits="userSpaceOnUse">
      <stop offset="0" stop-color="#69608c"/>
      <stop offset="1" stop-color="#a6b5d3"/>
    </linearGradient>
    <linearGradient id="linear-gradient5" x1="514.97" y1="398.72" x2="384.38" y2="523.38" gradientUnits="userSpaceOnUse">
      <stop offset="0" stop-color="#e1edf9"/>
      <stop offset="1" stop-color="#a8b8d7"/>
    </linearGradient>
    <linearGradient id="linear-gradient6" x1="111.37" y1="385.78" x2="157.58" y2="409.28" gradientUnits="userSpaceOnUse">
      <stop offset="0" stop-color="#a96d9d"/>
      <stop offset="1" stop-color="#744e7b"/>
    </linearGradient>
    <linearGradient id="linear-gradient7" x1="307.16" y1="327.28" x2="300.02" y2="423.84" gradientUnits="userSpaceOnUse">
      <stop offset="0" stop-color="#fff"/>
      <stop offset="1" stop-color="#cbcde4"/>
    </linearGradient>
    <linearGradient id="linear-gradient8" x1="378.4" y1="326.76" x2="374.89" y2="422.27" gradientUnits="userSpaceOnUse">
      <stop offset="0" stop-color="#fff"/>
      <stop offset="1" stop-color="#d0d7e9"/>
    </linearGradient>
    <linearGradient id="linear-gradient9" x1="277.83" y1="367.54" x2="233.53" y2="407.03" gradientUnits="userSpaceOnUse">
      <stop offset="0" stop-color="#253e8f"/>
      <stop offset="1" stop-color="#4a51a3"/>
    </linearGradient>
    <linearGradient id="linear-gradient10" x1="243.84" y1="330.3" x2="217.17" y2="419.48" gradientUnits="userSpaceOnUse">
      <stop offset="0" stop-color="#f2ebf5"/>
      <stop offset="1" stop-color="#bcb6d4"/>
    </linearGradient>
  </defs>
  <g id="Generative_Object">
    <g>
      <path class="st40" d="M121.39,335.91c.15-.17.34-.15.56-.1-7.2,27.86-8.24,57.05-2.66,85.21-1.04.95-.18,2.85-.96,4.1l-1.77,2.82c-1.21-.01-1.72.02-2.07.45l-9.96,4.97c-1.07.53-2.14.77-3.49-.16-.23.89-.44,1-1.2,1.28-.8.3-2.04-1.1-1.32-1.45,2.52-1.22,6.1-2.22,7.43-5.12s-.12-6.24-.56-9.19l-3.09-20.45c-.53,2.14-.55,4.21.05,6.11l1.9,15.37c1.19.43.62,1.84.98,2.76,1.25,3.22.33,6.26-2.61,7.25l-.27-3.77c-1.89-9.34-3.36-18.41-4.4-27.91-.13-1.22-.65-3.63-2.1-3.64l-13.21-.08c-1.19,0-1.83-.24-2.6-.53.96-1.19,2.88-1.4,4.32-.99,1.83.51,2.84-1.14,3.79-1.25,2.81-.31,5.99.18,8.97.37-.25-2.34-.23-4.53.72-6.84-.12-.56.65-.39,1.08-.26-.06,2.4-.81,4.85-.02,7.62l.86-14,.64-13.48c.12-2.56.48-5.22.8-7.9l1.5-12.5c.06-.53-.16-1.12-.39-1.25-.21-.12-.61-.09-.97.01l.34-5.14-2.67,3.85-4.98-.16c.01-1.23-.02-2.48-.86-2.95,1.16-4.04,1.4-8.34,3.08-12.54l17.13,6.74,7.99,2.73Z"/>
      <path class="st130" d="M458.32,240.64c-.25.26-.76.84-.7,1.2.05.3.67.74.93,1.06l8.08,9.82-.02.91c0,.32-.56.41-.85.6l-8.32,5.37c-1.84,1.19-3.37,2.02-5.81,2.26-1.71-.93-3.11-2.83-4.72-4.19s-1.94-4.22-2.84-1.96c-1.02-.85-.54-1.67-.75-2.57-.42-1.88-1.91-3.81-3.17-5.59-2.22-3.13-3.68-6.49-7.02-8.66l1,3.39c-2.06-.63-2.7-2.41-3.57-3.22.4-.15.53-.27.66-.36.89-.57.12-2.39-1.75-4.28-8-8.07-17.07-14.98-25.85-22.09.12-1,.67-1.85,1.32-2.7l10.12-12.75c15.91,10.92,30.62,24.09,43.61,38.87.74.84,1.07,2.07.97,2.68-.12.69-.84,1.72-1.32,2.21Z"/>
      <path class="st77" d="M515.02,352.14c2.97,20.74,3.03,42.32.22,63.04-.87-.06-1.13.48-1.01,1.26h-19.04c2.86-21.66,3.2-43.18.37-64.66l16.9-.9c.75-.04,1.79,1.67,2.55,1.26Z"/>
      <path class="st165" d="M481.44,459.69l-2.68,7.81,4.22,2.94,11.53,8.23c.91.65,1.56,2.21.98,3.4-3.9,8.04-16.77,32.74-20.87,33.05-1.26.09-2.26-.62-3.42-1.24l-14.43-7.74c-.92-.1-1.73,1.38-2.13,1.66-1.93-.1-1.6,2.39-3.27,1.09-.31-.24-.85-.67-.62-1.28.17-.44.52-.58,1-1.08-.08-.34-.52-.8-.07-1.37,10.14-12.95,18.1-26.88,24.55-41.75.28-.64.06-1.83-.33-1.89-.88-.14-.82,1.65-.9,1.83-6.34,14.23-14.78,26.98-23.45,39.52l-.92-.41,12.7-19.37,3.84-6.99,7.11-13.89c.5-.98,1.77-2,1.27-3.27.31-.06.72-.07.93.04.25.13.5.69.31,1.2-.37,1,.15,1.6,1.33,1.4-.35.29-.57,1-.46,1.37.09.32.19.94,1.35,1.17.43-1.44.61-2.72,1.43-4.19-.25-.39.35-1.52,1-.24Z"/>
      <path class="st15" d="M335.57,592.11c0,.16.12.33.09.5-.46,2.54-.07,4.89.48,7.51.46,2.2-.15,7.22-3.16,7.76-10.15,1.81-20.06,2.22-30.55,2.56-17.97.58-35.57-1.43-53.12-4.39-2.64-.45-4.99-1.68-5.8-3.8.45-.62.26-1.54.29-2.14s1.25-1.18,1.7-1.34l15.18,2.67c2.23.41,4.55.65,6.55.85l6.74.66,7.16.51,7.92.74,31.28-.02,9.79-.59c.93-.06,2.41-.77,2.35-1.55-.17-1.88,2.94-3.72,1.86-9.47,0-.72.9-.77,1.22-.45Z"/>
      <path class="st164" d="M493.41,336.62l2.74,13.06h13.74c2.27.01,4.1.54,5.13,2.46-.76.41-1.8-1.3-2.55-1.26l-16.9.9c-.35.02-.67.03-.99-.22-.22-.17-.97.81-.93,1.2l1.8,17.92-1.74.14c.94-1.56.64-2.14.45-3.2-4.01.62-7.44-.85-11.69-.71-.75-8.74-2.4-17.36-4.07-25.97l9.62-4.06c.74-.31.89-.98.74-1.72l1.4-.58c-.43.37-.17,1.87.57,1.67.92-.24,1.89-.58,2.65.37Z"/>
      <path class="st142" d="M487.08,270.81c-.82.04-1.16.61-.91,1.31.08,1.95.21,3.76-.39,4.7-3.42,1.12-6.8,6.66-9.67,7.03-.68.25-2.54.02-2.69-.77l1.97-5.94c.15-.44.61-1.23.87-1.64.32-.51-.54-1.5-.4-1.97l3.48-10c.63-1.82,1.01-3.18.32-4.57l-3.37,11.15c-.74-1.63-1.1-3.38-2.81-3.3-.48.02-1.07,1.3-1.36,1.03-.23-.2-1.14-.37-1.32-.1-.31.48-.29,1.21-.53,1.3-.56.22-.08-1.1-.88-1.45,1.15-2.4,5.74-6.97,9.6-14.03.89-1.62,1.93-2.84,2.23-5.44,3.32,7.17,4.6,14.96,5.87,22.68Z"/>
      <path class="st83" d="M495.57,351.77c2.83,21.49,2.49,43-.37,64.67h19.04c-.12-.79.14-1.33,1.01-1.27-.34,2.5-1.91,4.33-4.7,4.55l-14.86,1.2-2.38,10.61c-.49,1.3-1.89.91-2.81.26s-.64-1.92-.34-3.1c2.26-8.66,3.81-17.24,4.51-26.13l.6-7.63.39-18.47-.19-5.8-1.8-17.92c-.04-.39.72-1.37.93-1.2.32.25.64.23.99.22Z"/>
      <path class="st106" d="M152.7,233.6l-5.61,5.42c-.64.38-1.3.45-1.84,1l-5.74,5.83c-.69.7-1.07,1.79-1.9,1.93-.23.03-.76-.35-1.5,0,.57,1.32-.14,2.33-.66,3.22-.55-.29-1.05-.79-1.6-.48-.38.22-1.02.66-.13,1.27-1.91,2.24-4.24,4-6.41,6.24-2.29,2.36-4.31,5.21-6.65,7.2-1.4.27-2.56,1.26-2.38,3.11-.7-.09-.92-.39-1.41.03-.52-.47-1.07-1.08-1.75-1.24-.28-.62-.73-1.18-.69-1.61.3-3.33,18.04-22.64,23.55-28.65.28,1.24-.5,2.06-1.58,2.99l1.29.73c-.71.21-.95.69-.98.95-.03.28-.14.51.38.67l-1.35,2.3c-1.25,1.02-2.77,2.09-3.87,4.3,1.95-.67,2.96-2.59,3.87-4.3l8.19-6.7c1.14-.29.88-.94,1.11-2,1.48.34,5.73-4.89,9.7-6.47-1.38,2.31-3.96,3.34-2.04,4.22Z"/>
      <path class="st92" d="M196.01,211.7c-1.45.77-1.28,1.49-2.24,3.06-1.31,2.12-4.34,3.77-4.25,6.8l-12.81-12.24c-.45-.43-1.63-.31-2.09-.16-1.31.42-3.17.33-3.95-1.23.54-.69.68-1.24.44-1.78l6.32-4.78c5.86-4.43,11.26,8.47,18.59,10.32Z"/>
      <path class="st101" d="M476.11,283.84c-.7.09-1.92,4.05-2.82,2.02-.24-.53.11-1.12-1.02-1.61.44,2.23-.12,2.85-1.14,4.21-.7.93-.68,3.42-1.66,3.65l-.32-2.24-2.55,1.77c-2.34-5.06-3.93-11.73-.97-16.07,1.67-2.46,2.44-5.22,3.76-7.97.8.35.32,1.67.88,1.45.24-.09.22-.82.53-1.3.18-.27,1.09-.11,1.32.1.3.27.89-1.01,1.36-1.03,1.71-.08,2.07,1.67,2.81,3.3l3.37-11.15c.68,1.39.31,2.74-.32,4.57l-3.48,10c-.14.47.72,1.46.4,1.97-.25.41-.72,1.2-.87,1.64l-1.97,5.94c.15.79,2.01,1.02,2.69.77Z"/>
      <path class="st175" d="M486.06,290.44c-.08-.44-1.14-.99-1.06.18-.64.46-1.37.2-.9-1.45-3.35,3.37-7.17,5.67-12.4,6.71-1.1.22-2.33,1.85-3.89,1.14.65-1.54,1.69-3.13,1.65-4.91.98-.23.96-2.73,1.66-3.65,1.02-1.36,1.58-1.98,1.14-4.21,1.13.49.78,1.08,1.02,1.61.9,2.03,2.12-1.93,2.82-2.02,2.87-.37,6.25-5.91,9.67-7.03.6-.94.47-2.75.39-4.7-.24-.7.09-1.27.91-1.31.68,4.17.1,14.23-1.02,19.63Z"/>
      <path class="st84" d="M401.2,207.37c-.48.53-1.13,2.01-.39,2.92.22.27,1.12-.7,1.43-.55.54.26.52,1.56.28,1.96-.51.39-1.34-.13-2.09.21l-1,3.87c-1.7,2.89-4,5.42-5.46,8.85l-7.77-4.41c.8-3.11,2.3-6.11,4.16-9.09,1.1-1.76,2.68-3.18,2.1-5.5,3.97,1.46,6.77,3.97,8.74,1.73Z"/>
      <path class="st224" d="M392.46,205.63c.59,2.32-1,3.74-2.1,5.5-1.86,2.98-3.36,5.98-4.16,9.09l-8.19-4.15c1.39-1.94,2.82-5.35,2.61-6.42,1.87-.95,1.39-4.62,3.61-5.64.85-.38.78-1.01,1-1.54,1.58,2.4,4.73,2.24,7.22,3.16Z"/>
      <path class="st131" d="M115.11,267.17c.68.16,1.22.77,1.75,1.24,3.18,2.85,6.67,5.67,9.63,9.18-.33,2.38-1.5,3.86-2.35,5.36-1.64-.13-2.69-1.24-3.99-2.13l-7.77-5.32c-.46-.32-1.85-1.45-1.51-2.15,1.9-3.96,2.89-6.83,4.24-6.17Z"/>
      <path class="st196" d="M500.75,461.37c-.54.24-1.22.31-2.08.1l-10.39-2.55-5.29,11.52-4.22-2.94,2.68-7.81c.37-1.07,1.44-2.26.81-4.29l6.59,1.51,9.93,3.37c.7.24,1.73.22,1.98,1.09Z"/>
      <path class="st213" d="M466.5,256.54c-3.29,1.64-5.8,4.43-7.3,7.54l-1.8,2.45c-.46.63-1.04,1.53-1.84,1.84l-5.79-5.59c-.96,1.2-1.78-.38-.59-.9l-3.47-4.02c.49-.28.81-.1,1.2-.19,1.61,1.37,3.02,3.27,4.72,4.19,2.44-.24,3.98-1.08,5.81-2.26l8.32-5.37c.29-.19.84-.28.85-.6l.02-.91,1.21.17c-.38,1.17-1.38,2.45-1.34,3.64Z"/>
      <path class="st158" d="M393.18,585.75c-1.43,2.31-3.9,3.52-6.49,4.8l-14.74,7.29c-1.59.28-3.48-1.99-4.54-3.06l11.26-4.14,11.8-4.52c.93-.36,1.71-1.21,2.71-.38Z"/>
      <path class="st149" d="M493.3,431.54c.4.35.35.65.42.85.06.15.58.3.82-.32,2.64,2.24,5.09,1.47,4.95,2.94l-8.04-2.14-12.51-4.36c-.51-.81.23-1.36,1.02-.81l8.84,3.51,3.03-15.42c.77-2.31.63-4.67.24-6.7,2.14-2.97,1.72-6.32,1.87-9.3l.69-13.47.34-9.72c.12-.2.52-.24.68-.13l-.39,18.47-.6,7.63c-.69,8.89-2.25,17.47-4.51,26.13-.31,1.18-.6,2.43.34,3.1s2.32,1.04,2.81-.26Z"/>
      <path class="st78" d="M109.18,457.08c.66,1.09.97,2.55,1.21,3.67l-15.26,2.59c-1.08.2-1.85.16-2.58-.22.41-.63.11-1.04.02-1.47-.15-.76,1.24-.78,1.76-.99l13.39-5.43c.31-.13.82,1.29.47,1.53-.25.18.89.48.99.32Z"/>
      <path class="st184" d="M415.06,196.88l-10.12,12.75c-.64.84-1.2,1.7-1.32,2.7-.29-.23-.63-.71-1.11-.63.24-.4.26-1.7-.28-1.96-.32-.15-1.22.82-1.43.55-.74-.91-.08-2.39.39-2.92l8.7-9.6c1.27-1.4,3.71-1.88,5.16-.88Z"/>
      <path class="st104" d="M253,168.39c.21,1.13-.96,2.28-.97,3.07l-.27,15.74c-.02,1.34-1.23,2.61.13,3.64-1.93.77-4.36,2.42-6.82,1.9-2.7-.58-3.67-4.05-3.45-6.17,1.03,1.22,1.5,3.03,3.05,3.33,1.73.33,5.51-.48,5.6-2.27l.74-14.97c.06-1.14.64-3.72,2-4.27Z"/>
      <path class="st10" d="M467.84,252.89l-1.21-.17-8.08-9.82c-.26-.32-.88-.76-.93-1.06-.06-.36.45-.94.7-1.2.56.32,1.11.13,1.68-.68,4.34,2.81,9.03,9.26,7.84,12.93Z"/>
      <path class="st53" d="M506.6,325.73c-.04.76-.64,1.6-1.52,2.18l-10.11,6.76c-.49.33-1.51.48-1.65.81-.11.25.04.84.1,1.14-.76-.96-1.74-.61-2.65-.37-.74.19-1-1.3-.57-1.67,4.95-3.41,10.87-6.39,16.41-8.85Z"/>
      <path class="st5" d="M200.77,232.88l-4,2.81c-7.57,5.33-14.56,11.38-21.58,17.71-1.09.98-2.92,1.51-2.51,3.23-.58.5-1,1.89-2.08,2.22l-1.73.53c-.48.15-.47,1.42-.83,2.05-1.65,2.93-4.22,4.61-6.19,6.77-1.24,1.37-2.81,2.7-3.56,4.45-.67.54-1.22.95-1.77,1.67-.48-1.46-1.93-2.89-3.6-2.46,3.43-4.45,7.01-8.95,11.01-13.32l5.71-6.23c5.56-5.23,11.13-10.57,17.28-15.1l9.58-7.05,2.18-1.32c1.57.61,1.93,2.52,2.08,4.04Z"/>
      <path class="st85" d="M200.77,232.88c-.16-1.52-.51-3.43-2.08-4.04,8.37-5.09,16.98-10.05,25.87-14.13.88,1.15,1.82,2.16,2.41,3.5l-12.52,6.28-13.67,8.39Z"/>
      <g>
        <path class="st25" d="M362.53,176.72l-2.19,4.62c.78,1.4-.17,2.7-.76,4.12l-7.68,18.66c-.19.46.65.84.64.85l-.74,1.13c-23.93-6.71-48.97-9.31-74.04-6.16-18.7,2.35-36.44,7.07-53.2,14.77-8.89,4.08-17.5,9.04-25.87,14.13l-2.18,1.32c-.28-.39-.81-1.51.15-1.91-1.48-2.47-3.73-3.9-6.05-6.3.08-.33.71-.78,1.49-.42,1.68,1.02,2.43,3.43,4.92,3.76-2.49-3.57-6.51-5.39-6.89-4.76l-.62,1.03c-.09-3.03,2.94-4.67,4.25-6.8.97-1.57.79-2.29,2.24-3.06l4.03-2.14c5.72-3.04,11.16-6.36,16.8-8.54.53.39,1.16.05,2.06.02.35.08.8.71,1.27.22.33-.35.8-.95.57-1.64l-4.51-13.68c-.45-1.36-.91-2.53-.68-3.93,5.81-3,12.19-5.46,18.75-7.45,1.22-.37,1.69,1.5,1.93,2.1l1.94,4.92c1.78,4.53,3.21,12.14,6.95,12.17,3.09.03,5.77-2.24,8.57-2.75l14.47-2.61c.49-.09.74-.33.7-.7l9.69-1.38c.91-.13,2.53-.27,3.61-.24l32.5.89,20.73,2.37,10.21,1.53c2.23.33,4.31.03,5.11-2.87-3.06.93-5.32.31-8.28-.11-24.96-3.57-48.47-4.67-73.26-1.71l-.74-13.95,6.37-.95,6.75-.74,36.26.03,7.37.72c1.55.15,3.11.65,4.94.65-2.68-1.93-6.15-1.59-9.25-1.86l-8.04-.7-25.05.02-8.8.61-6.74.62c-2.85.26-5.47.72-8.55,1.51-1.43.37-3.29-.35-4.4,1.27,2.39.27,4.08-.32,6.35-.71l.24,10.78c0,1.43,1.1,3.1-.13,4.43-4.26,1.19-9.32,1.13-13.91,2.97-1.36-1.03-.15-2.3-.13-3.64l.27-15.74c.01-.79,1.18-1.95.97-3.07,22.05-4.71,45.22-5.33,68.18-2.96l11.31,1.17c2.39.25,3.37,2.03,5.27,2.8l9.78,3.93,14.99,3.4Z"/>
        <g>
          <path class="st56" d="M216.85,201.02c.92-1.39.76-2.77.27-4.53l-2.91-10.56c-.45-1.64-.01-3.22,1.35-3.93-.23,1.4.23,2.57.68,3.93l4.51,13.68c.23.7-.24,1.3-.57,1.64-.47.49-.92-.14-1.27-.22-.91.03-1.53.36-2.06-.02Z"/>
          <path class="st109" d="M268.46,172.22l.74,13.95c-.39.42-.38.86-.31,1.52l-3.1.19c1.23-1.32.13-2.99.13-4.43l-.24-10.78c.9-.16,1.78-.3,2.78-.45Z"/>
          <path class="st61" d="M268.89,187.69c-.07-.66-.08-1.1.31-1.52,24.79-2.96,48.3-1.86,73.26,1.71,2.97.42,5.22,1.04,8.28.11-.8,2.9-2.89,3.2-5.11,2.87l-10.21-1.53-20.73-2.37-32.5-.89c-1.08-.03-2.7.12-3.61.24l-9.69,1.38Z"/>
          <path class="st216" d="M268.46,172.22c-1,.15-1.88.3-2.78.45-2.27.39-3.96.99-6.35.71,1.11-1.62,2.97-.91,4.4-1.27,3.07-.79,5.7-1.25,8.55-1.51l6.74-.62,8.8-.61,25.05-.02,8.04.7c3.1.27,6.57-.07,9.25,1.86-1.83,0-3.39-.5-4.94-.65l-7.37-.72-36.26-.03-6.75.74-6.37.95Z"/>
          <path class="st121" d="M217.43,204.57l-10.98,5.76c-.15-.27-.22-.6-.13-.98l10.12-5.14,3.62-2.27c-.4,1.54-1.56,2.07-2.63,2.63Z"/>
          <path class="st60" d="M205.68,210.59c-.04-.06-3.28,3.28-5.72,2.68,2.14-1.81,5.25-3.31,5.72-2.68Z"/>
          <path class="st18" d="M227.39,185.64c-.34.96.43,1.19.76,1.18.49,0,.8.79.18.9-1.08.19-2-.57-2.36-1.13-.28-.44.35-1.29,1.2-1.87.89-.67,1.33.77.21.92Z"/>
          <path class="st229" d="M353.05,178.69l-4.39-.27c-.27.32-1.01.8-1.15.34-.1-.33-.06-.84-.02-1.24.02-.21.63-.46.79.29,1.72.11,3.41-.43,4.77.89Z"/>
          <path class="st163" d="M353.05,178.69c.6-.11,1.58-.4,2.69-.11-1.08,1.24-1.99.15-2.69.11Z"/>
        </g>
      </g>
      <path class="st108" d="M146.92,476.44l5.95,8.96c.97,1.47,1.82,3.32,3.48,4.17-.32,1.2,1.16,2.08,1.83,2.93l5.04,6.41,4.44,5.07,17.29,16.39c10.68,10.13,23.98,17.49,37.18,23.89l4.4,1.87,14.8,5.71c26.41,8.81,54.73,11.06,82.52,7.29l6.14-.83,12.44-2.82c23.01-5.78,44.38-15.59,62.42-29.52.39.15.69.17,1.22,0-.57.76-.99,1.25-1.13,2.02,1.52.72,1.58,2.13,2.04,3.23l.91.61c.33.22.33.99-.54,1.43-.59-.35-1.27.41-.39,1.01-6.69,4.94-13.84,9.54-21.26,13.49-15.12,8.06-31.49,14.4-49.01,17.85-28.93,5.7-59.89,5.03-88.41-3.12l-16.94-5.66c.23-.85-.63-1.65-1.45-.69-21.95-8.84-41.66-21.7-58.66-38.41-10.8-10.62-20.17-21.95-27.51-34.64l-5.21-9c.58-.34,1.59.12,1.78.65l.58,1.68c.43,1.26,2.73.97,3.36-.11,1.33.79,1.98.09,2.69.14Z"/>
      <path class="st226" d="M335.52,590.88l.05,1.24c-.32-.32-1.22-.27-1.22.45,1.08,5.75-2.03,7.59-1.86,9.47l-4.64.96-14.51.53-12.61.38c.06-1.89-.4-3.95-1.02-5.55-5.43-.72-9.9.41-12.86,4.49l-9.09-.5-7.27-.68-5.9-.5-17.76-3.01c-.69-.57-1.42-.49-1.32.65-.45.16-1.67.75-1.7,1.34-.34.14-.72-.14-.68-.36.05-.3.12-.99-.08-1.42-.94-.39-.58-1.84.67-.91l-.99-8.09c-.36-2.92-.28-5.78,1.18-8.97,7.54,2.6,15.07,3.42,22.81,4.31l17.72,2.03,26.79.02,22.43-1.61c1.56,1.67,1.77,3.9,1.85,5.78Z"/>
      <path class="st170" d="M336.69,565.61c.19.47.59,1.09,1.14.84l1.44-.63c1.06-.47,2.42.19,3.42-.21-.1,2.82.85,5.81,1.94,8.31-.33-.28-1.29-.07-1.11.4.08.2.28.65-.11,1.34,1.33.88,1.44,2.46.96,3.78l-17.49,2.71-9.08.74-6.2.76h-28.79s-6.18-.76-6.18-.76l-7.22-.81-19.78-3.46c-1.55-.27-3.48-.8-4.51.24-.64,1.2-.85.16-1.14-.16-.49-.56-.53-2.19.81-1.28-.14-1.3-.18-2.59.27-4.1l3.21-10.82c28.52,8.15,59.47,8.83,88.41,3.12Z"/>
      <path class="st110" d="M155.81,502.52c2.76,3.74,6.13,6.99,9.37,10.64,2.3,2.58,4.37,5.02,7.27,7.11,2.34,1.68,3.73,4.2,5.79,6.13.32.3,1.51.31,4.41,4.06.18.24.69.02.92-.14l7.3,5.81c-.66,1.64-1.05,2.44-2.07,3.95,1.86,1.02,2.52,2.54,3.76,3.94.58.65,1.44,1.15,1.43,2.26,3.9,1.75,4.29,7.17,3.38,8.38-.3.39-1.53.97-1.62.42l-.21-1.3c-.03-.19-.44-.47-.77-.48-.25,0-.54.6-.76.5-.88-.41-2-.9-2.1-1.8-.11-.96-1.45-1.44-2.23-2.1l-1.51-1.28c.71-.85.96-1.99.04-2.96l-6.93-7.27c.42-2.97-1.28-5.62-3.57-7.09-.04-2.84-2.47-4.06-3.91-6.28-3.73-2.54-4.83-5.96-7.71-7.42-.6-1.48-1.92-2.58-3.42-2.78-1.65-3.49-4.99-3.75-8.17-4.32-1.96-.35-4.03-.64-5.18,1.5-2.77-2.25-5.09-5.87-7.39-8.72,1.63-.29,1.83,2.01,3.97,1.15.49-.2,1.19-.6,1.22-1.71l8.67-.21Z"/>
      <g>
        <path class="st36" d="M143.72,483.08c7.34,12.69,16.71,24.02,27.51,34.64,17,16.71,36.71,29.58,58.66,38.41.83-.96,1.68-.16,1.45.69l16.94,5.66-3.21,10.82c-.46,1.51-.42,2.8-.27,4.1-1.33-.91-1.3.72-.81,1.28.28.32.5,1.36,1.14.16.79.82,1.8.43,3.05.68l9.35,1.83,13.78,2.02,7.81.77,6.18.68c4.69.51,9.75.13,14.55-.05l15.54-.6,7.29-.66,5.95-.5,14.79-2.64c1.44-.26,4.84-.14,5.21-2.12.54-2.84-1.05-5.95-2.19-8.19l1.59,6.92c.4,1.74-2.31,2.24-3.64,2.44.47-1.32.37-2.9-.96-3.78.39-.68.19-1.14.11-1.34-.18-.47.77-.68,1.11-.4-.22.3-.3.93.03,1.21.16.14.36.75,1.13.44l-3.1-9.95c-1,.41-2.36-.25-3.42.21l-1.44.63c-.56.24-.95-.37-1.14-.84,17.52-3.45,33.89-9.79,49.01-17.85.14,1.19-.92,1.65-2.1,2.2l-16.15,7.49-13.74,4.97c.39,2.66,1.05,4.92,2.52,6.46.05,2.03,1.33,4.03,2.44,5.68.28.42.6,1.2,1.23,1.2l4.85,10.85c.44.95-1.16,1.97-2.09,1.67-2.1,1.01-4.55-.02-6.98.34-2.7.4-5.3,1.37-7.93.43-.29.23-.5,1.03.22,1.32l-6.29-.66c-1.43-.08-3.45,2.42-5.24.28-.05.8-.44.93-.92.88-.08-1.88-.29-4.11-1.85-5.78l-22.43,1.61-26.79-.02-17.72-2.03c-7.74-.89-15.27-1.71-22.81-4.31-1.47,3.18-1.54,6.05-1.18,8.97l.99,8.09c-1.26-.93-1.61.52-.67.91.19.43.13,1.12.08,1.42-.04.22.34.5.68.36-.03.6.16,1.52-.29,2.14l-2.73-7.15c-5.21-.62-13.1-6.8-15.86-5.97-1.48.45-2.43,4-5.53,6.13-5.12-1.75-11.85-4.51-10.46-7.61l5.99-13.4c-.14-.91-1.56-1.57-2.54-2.07l-16.06-8.16-6.16,6.86-.46-3.53,5.58-6.34c.43-.49,1.49-.77,1.6-1.23.19-.83-.22-1.72-1.02-2.36l-4.16-3.35c-.46-.37-.85-.55-1.05-1.14-.28-.83.55-1.26,1.26-.93.1.9,1.22,1.4,2.1,1.8.22.1.51-.5.76-.5.32,0,.73.28.77.48l.21,1.3c.09.55,1.32-.03,1.62-.42.91-1.21.52-6.64-3.38-8.38.01-1.11-.85-1.61-1.43-2.26-1.24-1.4-1.89-2.92-3.76-3.94,1.01-1.51,1.41-2.31,2.07-3.95l-7.3-5.81c-.23.16-.73.38-.92.14-2.9-3.75-4.09-3.76-4.41-4.06-2.06-1.93-3.45-4.45-5.79-6.13-2.9-2.09-4.97-4.53-7.27-7.11-3.24-3.65-6.61-6.9-9.37-10.64l-4.25-5.75-7.78-11.53c-.47-.69-1.11-.2-.9-1.49.05-.33.12-.73.84-.66Z"/>
        <g>
          <path class="st219" d="M245.13,578.84c1.04-1.03,2.96-.51,4.51-.24l19.78,3.46,7.22.81,6.18.75h28.79s6.2-.75,6.2-.75l9.08-.74,17.49-2.71c1.33-.21,4.05-.7,3.64-2.44l-1.59-6.92c1.14,2.24,2.73,5.34,2.19,8.19-.38,1.99-3.77,1.86-5.21,2.12l-14.79,2.64-5.95.5-7.29.66-15.54.6c-4.79.18-9.85.56-14.55.05l-6.18-.68-7.81-.77-13.78-2.02-9.35-1.83c-1.25-.24-2.26.15-3.05-.68Z"/>
          <path class="st168" d="M232.46,589.29c-3.26-.03-5.29-1.09-7.68-2.07,1.57-2.62,4.9-.68,7.68,2.07Z"/>
          <path class="st59" d="M228.33,574.92c-1.56-.08-.4-2.29,1.44-4.2.25-.26-.67-.89.54-1.36.73-1.08.81-3.61,2.93-4.22l-1.06,3.14-3.84,6.64Z"/>
          <path class="st12" d="M344.63,573.91c-1.08-2.5-2.04-5.49-1.94-8.31l3.1,9.95c-.78.31-.97-.3-1.13-.44-.33-.28-.25-.91-.03-1.21Z"/>
          <path class="st199" d="M227.32,575.47c-1.52,0-3.22-.14-4.87-1.14.53-1.29,2.27-1.31,3.53-1.51.31.29.61.75,1.34,2.66Z"/>
          <path class="st119" d="M209.24,560.41c.6-.59,1.38-.21,1.38-.01,0,.28-.56.75-.87.96-.47.32-1.27-.2-.52-.95Z"/>
          <path class="st65" d="M214.71,562.21c0-.22.78-.37,1.26-.23.2.06.37.37.09.62-.16.14-.45.59-.67.61s-.7-.46-.68-.99Z"/>
          <circle class="st123" cx="218.73" cy="586.28" r=".61"/>
          <circle class="st179" cx="204.36" cy="557.54" r=".61"/>
        </g>
      </g>
      <path class="st21" d="M475.02,437.71l-4.66,13.56c-.4,1.16-.76,2.36-1.86,3.26,2.7,1.74,5.4,1.64,7.53,3.55l-7.54-2.42c-6.56,16.28-15.3,30.94-25.93,44.43-10.24,13-22.57,24.54-35.61,34.18-.88-.6-.2-1.36.39-1.01.87-.45.87-1.21.54-1.43l-.91-.61c-.47-1.1-.53-2.52-2.04-3.23.14-.77.57-1.26,1.13-2.02-.53.17-.83.15-1.22,0,.21-.29.19-1.04-.12-1.35-.23-.23-.43-.48-.9-.5-.07-.58-.53-.95-.84-1.37,1.46.13,2.24,1.33,3.55,2.37,19.55-14.59,35.79-33.31,47.74-54.34s19.46-44.19,22.6-69.25c.18-1.47,3.59-1.25,3.95-.09.77,2.45-.92,7.02-1.15,10.57-.05.82.49,1.66-1.08,2.13,1.61,1.49-1.12,3.59.11,6.16-.97.28-1.38.72-1.3.94l.53,1.48-1.17,1.51.59,1.49-2.54,9.53-.55,1.51c-.15.41,0,.94.75.99Z"/>
      <path class="st210" d="M476.03,458.07c-.65.18-.54.72-.48.87.5,1.28-.77,2.3-1.27,3.27l-7.11,13.89-3.84,6.99-12.7,19.37-5.14,7.08c-2.09-.37-3.39-1.63-4.36-3.21-1.66-2.72,2.98-5.44,1.43-6.24,10.62-13.49,19.37-28.15,25.93-44.43l7.54,2.42Z"/>
      <path class="st34" d="M451.76,506.53c-1.18-.52-3.75,2.5-4.53,5.2-.4.39-.63-.55-.75-.91-.27-.8.49-1.29.94-1.94l4.14-6c8.66-12.55,17.11-25.3,23.45-39.52.08-.18.02-1.97.9-1.83.39.06.61,1.25.33,1.89-6.45,14.87-14.41,28.8-24.55,41.75-.44.57-.01,1.03.07,1.37Z"/>
      <g>
        <path class="st55" d="M451.76,506.53c-.47.5-.83.65-1,1.08-.23.6.31,1.04.62,1.28,1.66,1.29,1.33-1.2,3.27-1.09l-4.36,6.21,12.32,12.23c1.31,1.3,2.07,2.98,1.77,4.8-.2,1.24-1.17,2.55-2.29,3.78-11.09,12.17-23.12,23.07-36.48,32.75-2.03,1.47-5.05,1.82-6.94.1-2.77-2.53-5.92-4.72-7.85-7.45-1.33-1.88-2.64-4.08-5.06-5.42-.54-1.21,1.73-2.05,2.34-2.71.98-1.06,1.81-2.45,3.32-3.11,1.88-.82,3.55-1.81,4.66-3.79-1.98-.59-2.34,1.35-2.97,1.61-1.11.41-1.11-.44-.87-.58.51-.28.06-1.27-.1-1.09l-.73.85-12.93,8.03-.47-.55,9.48-5.74c.7-.43.87-1.48.39-1.91l-1.25-1.1c-.34-.3-.4-1.31-.22-1.61s1.18-.46,1.26-.81c.59-2.46,1.7-4.21,3.73-5.69.93-.68.76-1.81,1.32-2.43l4.46-4.95c.8-.89.93-2.31,2.21-3.47l3.84-3.47c2.77-1.34,4.02-3.41,5.96-5.57l8-8.93c.83-.93,2.94-.88,3.93-1.43.97,1.59,2.27,2.85,4.36,3.21l5.14-7.08.92.41-4.14,6c-.45.65-1.21,1.14-.94,1.94.12.36.35,1.31.75.91.78-2.7,3.34-5.72,4.53-5.2Z"/>
        <path class="st136" d="M441.48,534.25c-5.59,1.78-7.88,7.3-11.84,7.78-.84.1-2.63-1.53-2.37-2.47,1.38-4.98,10.12-12.48,15.5-13.84.26-.78.87-1.82,1.54-2.15.53-.27,1.57.05,1.97.89.59,1.26,1.04,2.54.04,3.49-.7.66-2.01.88-3,.4l-1.83,5.9Z"/>
        <path class="st192" d="M439.81,520.09c-.94-.74-2.48-.74-3.1.65-1.11-.11-1.86-.2-3.06-.71,1.79-3.29,4.8-5.9,7.71-5.44.72.12,2.04,1.61,1.56,2.13l-3.11,3.37Z"/>
        <path class="st169" d="M417.75,550.49c-.76-1.47,1.15-4.35,2.46-3.97,1.88.54,1.92,2.71,1.5,3.87-.46,1.28-3.18,1.63-3.96.1Z"/>
        <path class="st68" d="M449.32,524.96c-.49.36-1.01-.34-.62-.74l.96-.97c.39.37.5,1.09-.35,1.71Z"/>
      </g>
      <path class="st198" d="M128.42,329.74l-2.46,9.16c-.2.74.02,1.85-.21,2.56-1.86,5.34-3.07,14.78-3.73,21.1l-.38,3.59-.55,8.71c-.36,5.74-.35,11.85,0,17.58l.53,8.75c.07,1.19.4,2.27.37,3.4l-.04,1.27c.96,1.12.61,2.67.89,4.17,1.32,7.11,1.85,14.5,4.84,20.78-.7,1.31-.29,1.68.02,2.57,3.24,9.35,6.13,18.95,11.17,27.4-.19.89.1,1.59.65,2.56l7.41,13.1c-.71-.05-1.36.65-2.69-.14-.63,1.09-2.93,1.38-3.36.11l-.58-1.68c-.18-.53-1.2-.99-1.78-.65-9.45-16.34-15.55-34.52-19.22-53.06-5.58-28.16-4.54-57.35,2.66-85.21l1.6-6.2c.86.19,1.27-.41,1.04-1.34,1.51.36,2.45.83,3.82,1.46Z"/>
      <path class="st11" d="M427.31,236l3.26,3.06c.87.81,1.51,2.59,3.57,3.22l-1-3.39c3.34,2.17,4.8,5.53,7.02,8.66,1.26,1.78,2.74,3.71,3.17,5.59.2.9-.27,1.72.75,2.57,3.83,3.2-3.91,1.43-5.54,4.66-.71-.66-1.58-1.13-2.45-.84-12.3-13.61-26.5-25.36-42.11-34.9,1.46-3.43,3.76-5.96,5.46-8.85,1.22-.72,2.41-.15,3.72.76,8.68,5.98,16.72,12.46,24.16,19.47Z"/>
      <path class="st94" d="M446.91,257.67c-.38.08-.71-.1-1.2.19l3.47,4.02c-1.19.52-.37,2.1.59.9l5.79,5.59c.09.48-.39.96-.5,1.3-.24,0-.89-.1-.96-.27s.42-.47-.32-.89c-.82,2.41-1.94,4.33-4.13,6.07l-2.44-1.61c-3.41-4.75-7.3-9.19-11.14-13.42.87-.28,1.74.18,2.45.84,1.63-3.23,9.37-1.46,5.54-4.66.91-2.26,1.22.59,2.84,1.96Z"/>
      <path class="st116" d="M402.52,211.7c.48-.07.82.4,1.11.63,8.78,7.11,17.85,14.03,25.85,22.09-.14,1.05-1.05,1.8-2.17,1.58-7.45-7.01-15.48-13.48-24.16-19.47-1.31-.9-2.5-1.48-3.72-.76l1-3.87c.75-.34,1.58.18,2.09-.21Z"/>
      <path class="st227" d="M430.57,239.06l-3.26-3.06c1.12.23,2.02-.52,2.17-1.58,1.87,1.89,2.64,3.71,1.75,4.28-.14.09-.27.21-.66.36Z"/>
      <path class="st88" d="M188.18,548.62l-8.09-6-4.59-4.13c1.81-1.83-.38-3.1-.66-4.16-1.14-4.31-4.62-6.25-5.22-7.91-.68-1.9-2.03-3.27-3.92-3.89-2.05-.66-2.64-3.46-3.64-4.97-1.38-2.07-4.89-1.5-6.6-2.03l-3.95-1.23c-1.01-.32-1.57-1.8-2.17-2.3,1.15-2.13,3.22-1.84,5.18-1.5,3.18.57,6.52.83,8.17,4.32,1.5.19,2.82,1.29,3.42,2.78,2.88,1.46,3.98,4.87,7.71,7.42,1.43,2.22,3.87,3.43,3.91,6.28,2.29,1.47,3.99,4.12,3.57,7.09l6.93,7.27c.92.96.67,2.11-.04,2.96Z"/>
      <g>
        <path class="st96" d="M141.95,503.29c2.3,2.85,4.62,6.47,7.39,8.72.61.5,1.16,1.98,2.17,2.3l3.95,1.23c1.71.53,5.22-.04,6.6,2.03,1,1.51,1.59,4.31,3.64,4.97,1.89.61,3.24,1.99,3.92,3.89.6,1.66,4.07,3.6,5.22,7.91.28,1.06,2.47,2.33.66,4.16l4.59,4.13,8.09,6,1.51,1.28c.78.66,2.12,1.13,2.23,2.1-.71-.33-1.54.1-1.26.93.2.59.59.76,1.05,1.14l4.16,3.35c.8.64,1.21,1.53,1.02,2.36-.11.46-1.16.74-1.6,1.23l-5.58,6.34.46,3.53c-1.3,1.45-2.9,4.08-5.38,4.41-1.91.25-4.3-1.44-6.03-2.7-16.3-11.83-30.97-25.34-44.29-40.45-2.93-3.33-.58-7.06,2.83-10.64-1.91-.42-2.88-.23-4.02.22-.08-.44-.38-1.29.4-1.67.01.75.83,1.37,1.08,1.2,1.11-.73,2.62-5.87,5.42-4.24.6.71,1.47-.77,1.08-1.81,2.15-.71,3.51-1.93,5.54-2.01.39.53.89.65,1.16.65.67.02.77-.38.71-.82-.11-.88-1.22-.94-1.83-.12-1.28-.19-1.36-1.33.27-1.81l-6.46-7.91c-1.58-1.93-3.71-3.88-4.19-6.27l5.48,6.36Z"/>
        <g>
          <path class="st103" d="M147.46,517.73c-.54.73-1.33,1.27-1.84,2.39.64,1.76,1.76,3.48,3.33,3.81.63.13,1.13-.03,1.76.52-.45,1.05.23,1.97.97,2.8l5.31,6.03,7.21,7.12c.85.84,1.82,1.61,3.19,1.22.72.43.82,1.08,1.06,1.76.19.51,1.13.44,1.59-.14l-.21,1.57c-.07.53.51,1.02.95,1.51-.76-.15-1.2.02-1.68.61s.08,1.28.27,1.95c-.91-.06-2.16-1.02-3.08-1.94l-22.52-22.31-1.06-1.84c-.43-.75,1.27-4.68,3.03-6.59.2-.22,1.03.66.76,1.06-.18.27.41.67.94.45Z"/>
          <path class="st127" d="M167.4,541.62c-1.38.39-2.34-.38-3.19-1.22l-7.21-7.12-5.31-6.03c-.74-.84-1.41-1.75-.97-2.8s1.25-1.87,2.75-2.93c5.97,5.53,12.03,10.72,17.09,17.32-.02,1.24-2.14,2.5-3.16,2.79Z"/>
          <path class="st23" d="M148.95,523.92c-1.57-.33-2.69-2.05-3.33-3.81.51-1.12,1.3-1.66,1.84-2.39,1.28-.53,4.03.52,3.77,2.37l-2.28,3.83Z"/>
          <path class="st176" d="M188.88,560.36c-1.01-.39-2.61-1.19-2.94-2.34-.37-1.29.83-3.03,1.8-4.04,1.47.98,2.57,2.16,3.55,3.85l-2.41,2.53Z"/>
          <path class="st87" d="M170.8,546.32c-.44-.5-1.02-.98-.95-1.51l.21-1.57c1.01-.62,1.68-1.53,2.87-1.32.84.15,1.83.98,2.07,1.71.51,1.57-1.74,4.25-3.05,3.75-.37-.14-.77-.65-1.14-1.07Z"/>
          <path class="st166" d="M180.17,550.41c-.82.7-1.81,1.05-2.52,1.37-1.52-.75-2.22-1.9-1.75-3,.56-1.32,1.57-2.49,3.19-1.74.95.44,2.54,2.14,1.08,3.38Z"/>
          <path class="st169" d="M183.16,556.03c-1.23-.57-2.11-1.96-2.08-3.06.03-1.01,1.77-2.52,2.74-1.79,1.09.8,2.14,1.84,1.83,2.92-.24.83-1.52,2.39-2.49,1.94Z"/>
          <path class="st111" d="M184.45,566.8c-.6,1.27-2,.42-.81-.56.42-1.13,2.04-.36.81.56Z"/>
          <path class="st103" d="M169.39,548.89c.35.02.99-.11,1.27.21.16.17.09.79-.2.96-.06.03-.8-.37-1.07-1.17Z"/>
        </g>
      </g>
      <path class="st208" d="M156.53,274.32c-12.66,16.54-21.93,35.56-28.11,55.42-1.37-.62-2.31-1.09-3.82-1.46.22.93-.19,1.52-1.04,1.34,6.16-20.84,16.09-40.52,29.37-57.76,1.67-.42,3.12,1.01,3.6,2.46Z"/>
      <path class="st97" d="M175.69,236.46c-.01.57.99.98,1.58,1.17.38.13.79-.75,1.04-1.05,2.55-3.02,5.95,3.83,8.39-.74.67.54.29,1.04.23,1.36-6.15,4.52-11.72,9.86-17.28,15.1-1.55,1.03-3.87.08-4.67-.93-.26-.33-.34-1.35-.84-1.46-2.4-.54-2.93,4.66-6.56,5.41-.87-.84-.76-1.72-.86-2.68-.07-.65-1.55-1.1-2.29-1.34,6.49-6.95,13.24-13.65,21.32-19.1l3.12-2.7c-1.35,3.69-6.24,6.3-3.18,6.95Z"/>
      <path class="st172" d="M178.86,229.52l-3.12,2.7c-8.09,5.44-14.83,12.15-21.32,19.1-4.29,4.59-8.37,9.39-11.82,14.59-.41.1-.73-.22-.7-.66,7.12-10.85,16.58-20.12,26.5-28.66l11.75-8.89-5.68-4.23-3.32-1.61-2.55,4.73c-.12-.13-.44-.41-.53-.45.26-1.7,1.82-2.84,2.47-4.51-3.39-1.64-6.06-.16-8.47,1.35l-.27-.91c3.31-2.59,7.54-3.13,11.47-.46l7.43,5.04c.85.57,2.22,1.68,1.31,2.58-.54-.1-1.49-.87-2.07-.64-.46.19-.75.65-1.08.94Z"/>
      <g>
        <path class="st135" d="M157.57,255.32c-.48.09-.8.34-.98.57-.25.34.06.82.34.99.5.3.84-.05,1.26-.38l6.78-5.13c.8,1.01,3.13,1.96,4.67.93l-5.71,6.23c-4,4.37-7.58,8.87-11.01,13.32-13.28,17.24-23.21,36.92-29.37,57.76l-1.6,6.2c-.21-.05-.41-.07-.56.1-.28-1.13-1.34-1.25-2.23-1.6l-18.06-6.99c-2.71-1.05-7.57-1.4-9.03-4.69s1.22-8.22,3.39-10.54l14.51,3.8c3.64-11.4,8.2-22.49,14.17-32.96.85-1.5,2.02-2.97,2.35-5.36-2.97-3.51-6.45-6.34-9.63-9.18.49-.42.71-.12,1.41-.03-.18-1.85.98-2.85,2.38-3.11.02-.02-1.84,2.63-1.73,2.24-.09.31.13,1.22.51,1.59l6.65,6.59,1.17,1.09c1.43,1.33,3.16,2.13,4.74,4.27-2.98,3.24-4.85,6.85-6.76,10.55l-2.56,4.99-8.82,19.6c.07.12.28.34.55.44l5.58-11.61c5.22-10.86,10.78-21.24,17.61-31.54l5-7.55c3.45-5.2,7.53-10,11.82-14.59.73.24,2.22.69,2.29,1.34.1.96,0,1.84.86,2.68Z"/>
        <g>
          <path class="st171" d="M142.6,265.9l-5,7.55c-6.83,10.31-12.39,20.69-17.61,31.54l-5.58,11.61c-.28-.09-.48-.32-.55-.44l8.82-19.6,2.56-4.99c1.9-3.7,3.77-7.3,6.76-10.55-1.58-2.13-3.3-2.94-4.74-4.27.16-.17.91-.3,1.2-.27.4.04.62.87.84,1.2l2.71,2.62,9.89-15.07c-.02.44.29.76.7.66Z"/>
          <path class="st7" d="M129.02,298.71c-.45.94.02,2.58-1.29,3.45-.46-1.93.17-3.45.97-5.08,6.81-13.81,15.42-26.37,26.14-37.95.23.31.83,1.23.62,1.87-.24.75-1.81,1.03-2.29,1.56-9.85,11.09-17.86,23.01-24.16,36.15Z"/>
          <path class="st8" d="M96.42,320.23c.08-.9,1-1.33,1.51-1.23l2.25.47,22.49,7.19c-.16.18-.38.46-.44.61l-20.42-6.17c-1.93-.58-3.51-1.23-5.39-.87Z"/>
          <path class="st45" d="M164.98,251.38l-6.78,5.13c-.43.33-.77.69-1.26.38-.27-.17-.59-.65-.34-.99.17-.24.49-.48.98-.57,3.63-.74,4.16-5.95,6.56-5.41.5.11.58,1.13.84,1.46Z"/>
          <path class="st8" d="M96.42,320.23c.27,1.09.41,1.5,1.17,1.99l1.34.86c.27.17.21,1.49-.06,1.5-1.25,0-3.59-2.75-3.16-3.96.09-.26.31-.47.71-.38Z"/>
          <path class="st14" d="M123.36,307.92c.71-.31,1.31-.04,1.55.28.47.61.34,1.7-.15,1.97-.7.38-1.53.19-1.96-.32-.5-.59-.38-1.52.56-1.93Z"/>
          <path class="st161" d="M113.79,329.52c-2.06.04-4.14-.91-6.2-1.4l.38-.43c1.96.3,4.3.4,5.82,1.83Z"/>
          <path class="st161" d="M113.79,329.52c1.79.09,3.53.11,4.95,1.2-2.19.15-3.96-.27-4.95-1.2Z"/>
          <path class="st16" d="M121.55,315.11c-.32-.61-.29-1.52-.12-2.37.85.12.62.99.86,1.19.5.42-.26,1.3-.74,1.18Z"/>
        </g>
      </g>
      <g>
        <path class="st62" d="M113.86,456.41c4.63,6.55,6.53,16.14,9.37,18.61.1,2,1.6,3.64,2.63,5.04.05.87.03,1.82,1.19,2.01.18,2.1,1.76,4.29,3.01,6.17l.68,1.02c.21.32.69.4,1.04,0l2.9,4.42c.8,1.23,1.55,2.02,1.8,3.24.48,2.39,2.61,4.34,4.19,6.27l6.46,7.91c-1.63.47-1.54,1.61-.27,1.81.61-.82,1.72-.76,1.83.12.06.44-.04.84-.71.82-.28,0-.77-.13-1.16-.65-2.03.09-3.38,1.3-5.54,2.01.39,1.05-.48,2.52-1.08,1.81-2.8-1.64-4.32,3.51-5.42,4.24-.25.16-1.07-.46-1.08-1.2-.78.38-.49,1.23-.4,1.67-1.11,1.25-3.49.04-4.98-.23-3.62-.65-5.76-2.13-7.88-4.89-8.06-10.43-14.91-21.68-20.53-33.87,2.35-6.93,12.36-13.45,11.86-15.76l-1.37-6.23c-.25-1.12-.55-2.58-1.21-3.67-.3-.77-.28-1.75.36-2.25,1.75-1.38,3.11,3.28,4.32,1.59Z"/>
        <g>
          <path class="st141" d="M123.23,475.02c-2.85-2.47-4.74-12.05-9.37-18.61-.26-.37-.3-.74-1.3-.77-.24-.98.61-1.24,1.36-.56,3.19,4.08,4.83,9,6.83,13.84.92,2.23,2.49,4.05,2.49,6.1Z"/>
          <path class="st143" d="M131.78,489.26c-.35.41-.83.32-1.04,0l-.68-1.02c-1.25-1.88-2.83-4.07-3.01-6.17.91.11,1.17,1.45,1.78,2.43l2.95,4.76Z"/>
          <path class="st81" d="M125.86,480.06c-1.03-1.4-2.53-3.04-2.63-5.04,1.41,1.22,2.43,3.39,2.63,5.04Z"/>
          <path class="st143" d="M127.05,482.07c-1.16-.18-1.14-1.14-1.19-2.01.48.5,1.1.97,1.19,2.01Z"/>
          <path class="st144" d="M120.64,508.16c.69,1.08,1.56,1.98,2.27,2.16l11.4-7.47c.29.11.42,1.36-.11,1.59l-1.63.69-3.75,2.63c-2.4,1.68-6.55,3.01-5.89,3.45-.24-.16-1.17-.5-1.39-.78-6.51-8.39-12.03-17.34-16.75-27.09,2.42,1.38,2.67,4.07,4.05,6.23l11.79,18.58Z"/>
          <path class="st159" d="M120.64,508.16c.75-2.32,2.19-2.79,3.16-3.58l8.13-4.29.07.86c-1.4,1.13-3.28,1.67-5.04,2.72l-6.31,4.29Z"/>
        </g>
      </g>
      <g>
        <path class="st71" d="M101.36,343.39l-9.07.25c-8.33.26-6.72,2.17-5.56,1.65l1.18-.53,10.71-.4c1.17-.04,2.18-.81,3.11.21.76.84-.06,1.63-.16,2.45l-1.84,15.27-.49,9.67-.3,12.93c-.43-.13-1.2-.3-1.08.26-.96,2.3-.98,4.5-.72,6.84-2.98-.19-6.16-.68-8.97-.37-.95.11-1.96,1.76-3.79,1.25-1.45-.4-3.37-.19-4.32.99-1.22-.46-1.89-1.35-1.95-3.07-.45-14.89.4-29.5,2.43-44.25.29-2.14,1.35-2.77,3.37-3.12l8.46-1.49.84-2.93c.84.47.88,1.72.86,2.95l4.98.16,2.67-3.85-.34,5.14Z"/>
        <path class="st76" d="M101.36,343.39c.36-.1.76-.13.97-.01.23.13.45.72.39,1.25l-1.5,12.5c-.32,2.68-.68,5.34-.8,7.9l-.64,13.48-.86,14c-.8-2.77-.04-5.22.02-7.62l.3-12.93.49-9.67,1.84-15.27c.1-.82.93-1.61.16-2.45-.93-1.03-1.93-.25-3.11-.21l-10.71.4-1.18.53c-1.16.52-2.77-1.39,5.56-1.65l9.07-.25Z"/>
        <path class="st35" d="M82.72,386.89l.59,1.15c.13.24-1.28.47-1.28.16l.11-23.34.77-8.6.35-11.31c.09-.24.29-.38.55-.35l-.28,15.41-.69,11.07-.12,15.83Z"/>
      </g>
      <path class="st197" d="M495.45,370.68l.19,5.8c-.15-.11-.56-.07-.68.13l-.34,9.72-.69,13.47c-.15,2.98.27,6.33-1.87,9.3.4,2.03.54,4.38-.24,6.7l-3.03,15.42-8.84-3.51c-.03-.67-.53-.98-1.38-.46.55-1.09.16-1.52-.44-1.65,4.92-19.06,6.06-38.99,4.33-58.69,4.25-.15,7.68,1.33,11.69.71.19,1.05.49,1.64-.45,3.2l1.74-.14Z"/>
      <path class="st153" d="M455.06,269.67l-2.51,7.51c-.32.95-.22,1.78-.4,2.65l-4.93-6.87,2.44,1.61c2.18-1.74,3.31-3.66,4.13-6.07.74.42.25.72.32.89s.73.28.96.27Z"/>
      <g>
        <path class="st89" d="M465.63,275.57c-2.96,4.35-1.37,11.01.97,16.07l2.55-1.77.32,2.24c-.71.17-.8.28-1.01,1.07-1.07,2.61-2.34,5.03-2.81,7.63.15.07.43.05.66-.25l1.5-3.55c1.56.71,2.8-.93,3.89-1.14,5.22-1.04,9.04-3.34,12.4-6.71-.47,1.66.26,1.91.9,1.45-.09-1.16.97-.62,1.06-.18-1.59,7.67-4.37,15.03-8.76,21.58-.95,1.42-2.34,2.66-3.38,4.1-.7.46-1.79.87-2.69.99-5.06-13.07-11.57-25.53-19.08-37.29.18-.87.08-1.7.4-2.65l2.51-7.51c.11-.34.6-.81.5-1.3.8-.32,1.38-1.22,1.84-1.84,2.49.99.79,5.39.97,8.35.29,5.06,1.95,9.15,4.08,13.49l2.16,4.4c.18-.26.41-.37.5-.4l-4.26-9.22c-2.31-5.01-1.57-13.05-1.64-19.07,1.5-3.11,4.01-5.9,7.3-7.54.13,4.28-.31,8.62,1.09,13.09l-1.97,5.94Z"/>
        <path class="st38" d="M478.6,314.47c-1.65.53-3.06.59-4.68,1.66,1.04-1.44,2.43-2.68,3.38-4.1l1.3,2.45Z"/>
        <path class="st54" d="M457.4,266.53l1.8-2.45c.07,6.02-.67,14.06,1.64,19.07l4.26,9.22c-.09.03-.32.14-.5.4l-2.16-4.4c-2.13-4.34-3.78-8.43-4.08-13.49-.17-2.97,1.53-7.36-.97-8.35Z"/>
        <path class="st101" d="M467.81,297.02l-1.5,3.55c-.24.29-.51.31-.66.25.46-2.6,1.73-5.02,2.81-7.63.21-.8.3-.91,1.01-1.07.04,1.77-.99,3.37-1.65,4.91Z"/>
        <path class="st54" d="M466.25,294.74c.38,1.27-1.12,1.27-.74,0-.16-.84.9-.84.74,0Z"/>
      </g>
      <g>
        <path class="st217" d="M171.1,206.16c.24.54.1,1.09-.44,1.78.78,1.56,2.65,1.65,3.95,1.23-.01.15-.05,1.14.26,1.04.39-.13,1.17-.17,1.44.1l11.23,11.19c.76.76,1.92.66,2.54,1.24l6.59,5.51c-.96.41-.44,1.52-.15,1.91l-9.58,7.05c.06-.32.44-.82-.23-1.36-2.44,4.57-5.83-2.29-8.39.74l-2.62-.12c-3.06-.64,1.83-3.26,3.18-6.95.33-.29.61-.75,1.08-.94.58-.23,1.53.54,2.07.64.91-.89-.47-2-1.31-2.58l-7.43-5.04c-3.93-2.67-8.16-2.13-11.47.46l-7.31,5.72c-3.59,2.81-7.26,5.25-9.45,8.07l-.69-.08-6.25,6.25c-.35.35-.77.37-1,.23-.52-.16-.41-.4-.38-.67s.27-.74.98-.95l-1.29-.73c1.09-.93,1.87-1.75,1.58-2.99,10.17-11.08,21.1-21.66,33.12-30.75Z"/>
        <path class="st195" d="M189.52,221.56l.62-1.03c.38-.63,4.4,1.2,6.89,4.76-2.49-.34-3.24-2.74-4.92-3.76-.78-.36-1.42.09-1.49.42,2.33,2.4,4.58,3.83,6.05,6.3l-6.59-5.51c-.62-.58-1.78-.49-2.54-1.24l-11.23-11.19c-.27-.27-1.05-.23-1.44-.1-.31.1-.27-.9-.26-1.04.47-.15,1.65-.27,2.09.16l12.81,12.24Z"/>
        <path class="st50" d="M162.07,222.97c-2.69,1.69-5.69,3.68-7.33,6.42-3.97,1.58-8.22,6.8-9.7,6.47,2.19-2.82,5.85-5.26,9.45-8.07l7.31-5.72.27.91Z"/>
        <path class="st50" d="M145.04,235.85c-.24,1.06.03,1.71-1.11,2l-8.19,6.7,1.35-2.3c.23.14.65.12,1-.23l6.25-6.25.69.08Z"/>
        <path class="st180" d="M166.35,218.88c0-1.21,1.03-2.44,2.53-2.3-.65.96-1.09,1.66-2.53,2.3Z"/>
      </g>
      <path class="st82" d="M178.31,236.59c-.26.3-.66,1.17-1.04,1.05-.59-.2-1.59-.6-1.58-1.17l2.62.12Z"/>
      <path class="st69" d="M286.85,602.83l11.02.65c1.04.06,1.9.45,2.86.42l12.61-.38,14.51-.53,4.64-.96c.07.79-1.42,1.5-2.35,1.55l-9.79.59-31.28.02-7.92-.74-7.16-.51-6.74-.66c-2-.2-4.32-.44-6.55-.85l-15.18-2.67c-.1-1.14.62-1.22,1.32-.65l17.76,3.01,5.9.5,7.27.68,9.09.5Z"/>
      <path class="st64" d="M168.4,236.58c.49-1.38-.94-1.56-1.25-.68-1.38,1.72-2.56,3.17-4.46,3.84l-3.68-3.34,3.63-3.69c-.3-.49.1-.58.3-.65.49-.17.51-1.23-.05-1.2-.47.03-1.18.35-1.55.67l-4.98,4.4-1.27-2.64c1.21-1.88,3.51-3.28,5.7-4.08.14-.01.62-.38.52-.49l-.6-.67c-.2-.22-.78-.27-.61.37-2.69.93-4.62,2.75-6.33,5-.24-.08-.85-.03-1.07.18-1.92-.88.66-1.91,2.04-4.22,1.64-2.74,4.63-4.73,7.33-6.42,2.41-1.51,5.08-2.99,8.47-1.35-.65,1.67-2.21,2.81-2.47,4.51.09.04.41.33.53.45l2.55-4.73,3.32,1.61,5.68,4.23-11.75,8.89Z"/>
      <path class="st50" d="M135.74,244.55c-.92,1.71-1.92,3.63-3.87,4.3,1.1-2.21,2.62-3.28,3.87-4.3Z"/>
      <path class="st24" d="M454.28,470.76c-11.95,21.03-28.19,39.76-47.74,54.34-1.32-1.04-2.09-2.24-3.55-2.37-.22-2.47-2.09-4.35-3.56-6.27l-3.91-5.11c7.3-5.63,14.26-11.76,20.64-18.64l5.2-5.61c.8-.86,2.05-1.52,2.78-2.57l5.29-7.61c.85-1.23,2.72-2.59,2.34-4.22.5-.62,1.07-1.04,1.55-1.78l1.22-1.9c.32-.51,1.47-.71,1.09-2.02.8,0,1.28-1.16,1.71-1.93l5.62-9.94,1.24-3.03-.84-.07-6.19,11.72c-.51.96-1.85,2.19-1.54,3.25-1.29.11-.98,1.35-1.09,2.02-.81.24-1.34,1.08-1.22,1.9-.66.34-1.77.57-1.55,1.78l-10.73,13.48-5.51,5.96c-10.1,10.93-21.91,20.04-34.79,27.5-2.67,1.55-5.2,2.25-8.3,1.62-5.06-1.04-8.57-5.3-9.75-9.87l7.6-4.08c9.58-5.15,18.83-10.61,26.57-18.38l10.56-10.61,4.43-4.98,5.7-7.61c.65-.86,1.66-1.61.93-2.79l5.25-8.31c6.06-9.6,10.49-20.28,13.71-31.23,1.86-6.32,3.47-12.74,4.42-19.27,3.11-18.04,2.49-36.74-1.5-54.42-.43-.26-.27-.93-.32-1.27,1.87-.15,3.68-.76,5.42-1.37l7.06-2.48c.92-.32,2,.37,2.65,1.2,1.67-1,4.04-1.17,5.87-1.92l10.96-4.46c.45-.19-.03-.93-.2-1.19-.15-.23.26-.66.61-.45,2.8,11.67,4.03,23.78,4.52,36.17l.42,10.51c-2.47,3.02,1.1,7.76-1.5,11.76-.13,1.24,1.14,3.31-.5,4.86-.29,1.15,1.26,3.42-.71,4.93.03.88.97,2.82-.68,3.81.48,1.43.68,3.4-.95,4.42,1.76,1.06-.01,2.41.03,3.05.13,1.78-.85,4.73-1.36,6.73l-2.5,9.82c-.78-.37-1.49.61-.38,1l-1.98,6.03-8.13,19.25c-1.03,2.44-3.43,6.59-2.58,5.63l-.96,1.08c-.02,1.15-.59,1.55-1.42,1.73.84.98.06,1.13-.13,1.38-.27.38.17,1.13.71.83Z"/>
      <path class="st140" d="M338.13,243.22c-.3,1.32-.79.66-1.14.77.52-.17-1.97,4.93-2.1,8.67-.59-.05-1.3-.46-1.9-.21.06,1.13.8.91,1.06.98.55.15,1.05-.11.84-.77,1.11.22,2.37.58,3.3,1.21-.11.69.62,1.18,1.39.5.68,1.82,2.36,1.27,3.45,1.66,2.04.74,3.73,1.34,5.47,2.07l9.88,4.16.45-.56-8.54-3.93,3.45-9.59c29.98,11.5,54.94,33.16,71.28,61.54l12.62-7.52c.47.33.38,1.13.26,1.55-.17.02-.6-.25-.99,0l-11.17,7.21c5.87,10.98,10.71,22.28,13.5,34.14-1.13.38-.27,1.94-.35,2.59l-6.25,3.36c-.51-.11-1.31-.12-2.12-.31-3.01-13.76-8.42-26.55-15.65-38.55-.49-.81-.81-1.85-1.77-1.93-.89-.08-1.41-.98-1.22-1.88,0-1.26-1.02-2.14-1.82-3.29-7.06-10.21-15.02-19.65-25.25-27.18-.91-.67-2.59-.25-3.57-1.4-1.84-2.17-4.63-3.29-6.9-5.04-.75-.58-1.82.67-1.28,1.35,1.61,1.21,3.39,2.41,4.16,4.18-1.47-.89-2.27-1.31-3.4-1.04-.85-1.52-2.43-2.37-4.21-2.83-3.7-.95-6.69-3.07-9.57-5.16-2.21-1.6-4.66-2.11-6.94-3.11-3.6-1.58-7.1-3.6-11.43-4.32-1.22-.2-2.57-1.9-3.53-1.82-2.32.99-4.66-1.15-6.47-1.62-3.56-.93-7.15-.59-11.05-2.38-3.15-1.45-7.72.3-8.84-.79,1.02-.95,2.87-.53,4.23-.49.44-.11.8-.84.82-1.06.02-.24-.02-.68-.71-.8-.48-.09-.02-1.69.49-1.44l1.35.67,7.85.81c1.17.29,1.25-1.1-.09-.71-.34-.78-.24-1.13-.18-2.26l.26-4.91c.68-1.36.52-1.92-.09-3.15,4.15.72,8.32,1.61,12.42,2.66Z"/>
      <path class="st91" d="M325.71,240.56c.61,1.23.77,1.78.09,3.15l-.26,4.91c-.06,1.13-.15,1.48.18,2.26-9.25-2.3-18.86-2.62-28.78-2.51l-7.56.08c-2.27.9-4.73.47-7.31.82-15.53,2.09-30.26,6.63-43.95,13.45-4.06,1.67-7.61,4.33-11.86,6.44-1.82.91-3.25,2.43-4.77,3.45-1.08-.42-2.61.14-3.64,1.39-1.51-2.61-4.58-6.01-6.74-5.89.52-.43,1.26-.83,1.33-1.62.45.12.68,0,1.11-.32,7.86-5.77,16.07-10.81,24.73-14.64,27.31-12.08,57.95-16.1,87.43-10.97Z"/>
      <path class="st178" d="M220.82,242.7c-6,2.95-11.57,6.58-16.75,10.67-.67-1.02-.94-.12-1.33-.12-.85,0-1.07,1.3-.52,1.31.88-.63,1.1.15,1.31,0l1.48-1.07,11.9-7.67c2.71-1.75,5.47-3.21,8.64-3.89,1.34-.71,3-.23,4.53,1.01.84.42,1.05,2.39,1.5,3.85.47.53,1.44.72,1.82,1.79.28.8.26,1.49-.01,2.61.48-.02,1.06.32,1.08.61.07.91-2.85,1.53-3.7,2.02l-10.02,5.86c-.88.51-1.23.68-1.63,1.47-.34.67-.94.32-1.21.43-1.43.57-2.21,2.47-4.72,3.53-.19.96-1.17.99-.74,1.36-.07.79-.81,1.19-1.33,1.62-7.07,5.85-13.8,12.34-19.39,19.61l-1.57,1.41c-.26-1.35.93-2.23,1.79-3.19l5.33-5.99,8.53-8.41c.91-.89,2.41-1.61,3.09-3.01l-10.33-10.76c-.38.02-.92.47-1.24.7-.22.15-.81-.22-1.11-.52l-6.64-6.6-.7.11c-.63-.64-1.09-1.39-1.74-2.03l-3-2.96-3.14,2.78-5.23,4.7-3.09,2.66c-.4-1.72,1.42-2.25,2.51-3.23,7.02-6.34,14-12.38,21.58-17.71,3-.18,5.1-2.58,7.65-4.04l7.57-4.33c.99-.57,1.96,1.76,2.36,2.47l3.6,6.4c1.24,2.2,3.02,3.91,2.88,6.51Z"/>
      <path class="st191" d="M437.89,303.75c.06.78-.32,1.39-.67,2.07-1.16,2.28-1.7,5.64-.5,8.3l3.28,7.25c-.18.53-1.15,2.04-.64,2.66,2.88,3.54,4.58,7.32,5.91,11.89.82,2.79,3.16,6.37,1.82,9.5-.16.37-1.65.35-1.71.73-.04.26.05.72.05.91-1.74.61-3.54,1.23-5.42,1.37l-.78-3.33c-2.79-11.86-7.64-23.16-13.5-34.14l11.17-7.21c.39-.25.83.02.99,0Z"/>
      <path class="st73" d="M451.97,339.06c.52,1.73.48,3.72.52,5.52l-7.06,2.48c0-.19-.09-.66-.05-.91.06-.38,1.56-.36,1.71-.73,1.34-3.13-1.01-6.71-1.82-9.5-1.34-4.57-3.03-8.35-5.91-11.89-.51-.62.46-2.13.64-2.66l-3.28-7.25c-1.2-2.66-.66-6.03.5-8.3l2.18,3.18c5.57,9.59,9.49,19.72,12.57,30.06Z"/>
      <path class="st95" d="M353.73,248.18l-3.45,9.59-9.85-3.54-2.25-.35c-.93-.63-2.19-.99-3.3-1.21.12-3.75,2.62-8.84,2.1-8.67.35-.11.85.55,1.14-.77,5.34,1.36,10.59,3.03,15.6,4.96Z"/>
      <path class="st194" d="M472.38,337.76c-.35-.21-.75.22-.61.45.17.26.65,1.01.2,1.19l-10.96,4.46c-1.83.75-4.21.92-5.87,1.92-.65-.83-1.73-1.52-2.65-1.2-.04-1.8,0-3.78-.52-5.52l1.86-1.03,16.45-4.56c1.34.9,1.7,2.61,2.1,4.28Z"/>
      <path class="st230" d="M233.21,242.73c-.12.49-.96.9-.63,1.6.21.44.95.89,1.34,1.02-1.38,1.98.92,2.9,1.24,6.16l3.11.02c-8.66,3.83-16.88,8.88-24.73,14.64-.43.32-.66.44-1.11.32-.44-.37.55-.41.74-1.36,2.51-1.05,3.29-2.95,4.72-3.53.27-.11.87.24,1.21-.43.4-.79.75-.96,1.63-1.47l10.02-5.86c.85-.5,3.77-1.11,3.7-2.02-.02-.29-.6-.63-1.08-.61.28-1.12.29-1.81.01-2.61-.38-1.07-1.35-1.27-1.82-1.79-.45-1.46-.66-3.43-1.5-3.85-1.53-1.24-3.19-1.72-4.53-1.01-3.17.68-5.93,2.14-8.64,3.89l-11.9,7.67-1.48,1.07c-.21.15-.43-.63-1.31,0-.55-.01-.33-1.3.52-1.31.39,0,.67-.9,1.33.12,5.18-4.09,10.75-7.72,16.75-10.67,2.04-1,5.78-2.15,8.19-1.98,1.11.53,2.33,2.67,4.2,2.01Z"/>
      <g>
        <path class="st193" d="M351.79,206.1c8.42,2.72,16.83,5.71,24.93,9.47.23.29.91.3,1.29.5l8.19,4.15,7.77,4.41c15.61,9.54,29.8,21.3,42.11,34.9,3.83,4.24,7.73,8.68,11.14,13.42l4.93,6.87c7.51,11.75,14.02,24.22,19.08,37.29,2.9,7.49,4.95,15.32,6.88,23.1.06.23-.16.57.31.73,1.67,8.61,3.31,17.23,4.07,25.97,1.72,19.7.59,39.63-4.33,58.69l-3.13,12.11c-.76-.05-.91-.57-.75-.99l.55-1.51,2.54-9.53-.59-1.49,1.17-1.51-.53-1.48c-.08-.22.33-.66,1.3-.94-1.24-2.56,1.5-4.66-.11-6.16,1.57-.47,1.03-1.31,1.08-2.13.23-3.55,1.92-8.12,1.15-10.57-.36-1.16-3.76-1.38-3.95.09-3.14,25.05-10.62,48.17-22.6,69.25-.54.3-.98-.45-.71-.83.18-.25.97-.41.13-1.38.83-.18,1.4-.58,1.42-1.73l.96-1.08c-.85.95,1.55-3.2,2.58-5.63l8.13-19.25,1.98-6.03c-1.11-.39-.4-1.37.38-1l2.5-9.82c.51-2,1.49-4.95,1.36-6.73-.05-.64,1.73-1.99-.03-3.05,1.63-1.02,1.43-2.99.95-4.42,1.65-1,.71-2.93.68-3.81,1.97-1.51.42-3.78.71-4.93,1.64-1.54.37-3.62.5-4.86,2.6-4-.97-8.74,1.5-11.76l-.42-10.51c-.49-12.4-1.72-24.51-4.52-36.17-.4-1.67-.76-3.37-2.1-4.28l-16.45,4.56-1.86,1.03c-3.08-10.34-7-20.47-12.57-30.06l-2.18-3.18c.35-.68.73-1.29.67-2.07.12-.42.21-1.23-.26-1.55l-12.62,7.52c-16.34-28.39-41.31-50.04-71.28-61.54-5.01-1.92-10.26-3.59-15.6-4.96-4.1-1.05-8.27-1.94-12.42-2.66-29.48-5.12-60.12-1.1-87.43,10.97l-3.11-.02c-.32-3.26-2.62-4.18-1.24-6.16.02-3.09,2.11-5.7,4.02-7.94-.31-.22-1.57-.49-1.4.43-1.15,1.57-2.95,3.28-3.34,4.89-1.88.65-3.09-1.48-4.2-2.01-2.41-.18-6.15.97-8.19,1.98.14-2.6-1.64-4.32-2.88-6.51l-3.6-6.4c-.4-.71-1.36-3.04-2.36-2.47l-7.57,4.33c-2.54,1.46-4.64,3.86-7.65,4.04l4-2.81,13.67-8.39,12.52-6.28c-.59-1.35-1.53-2.35-2.41-3.5,16.76-7.69,34.5-12.42,53.2-14.77,25.07-3.15,50.11-.55,74.04,6.16Z"/>
        <path class="st147" d="M282.2,223.44l-8.89,1.4-12.82,2.93-5.85-18.17,16.02-3.34,10.56-1.22.54,6.59c.37,4.53,1.95,8.91.44,11.8Z"/>
        <path class="st148" d="M233.92,245.36c-.39-.14-1.13-.58-1.34-1.02-.33-.7.51-1.12.63-1.6.39-1.61,2.19-3.31,3.34-4.89-.18-.91,1.08-.64,1.4-.43-1.91,2.24-4.01,4.85-4.02,7.94Z"/>
      </g>
      <path class="st27" d="M207.01,492.04c2.12,2.16,4.66,4.32,7.45,6.18l10.55,7c.72.48,1.51.33,1.97.55.39.58.63,1.06,1.6,1.52l6.41,3.03c-.16.54.1,1.11.7,1.06-1.06,3.59-3.24,7.3-6.94,9.29-4.04,2.17-8.82,1.26-12.45-1.16l-11.23-7.48-5.54-3.93c-5.68-5.09-11.84-10.32-16.89-16l-5.16-5.84c-21.26-24.9-34.55-54.92-37.71-87.33l-.65-12.1c-.13-2.48.16-4.26.19-6.58.16-11.95,1.55-23.3,4.31-35.27l-17.65-6.06,2.46-9.16c6.18-19.85,15.44-38.88,28.11-55.42.55-.72,1.11-1.13,1.77-1.67l2.4-1.94,17.47,14.57,9.08,7-3.78,4.53c-14.75,20.65-23.65,44.49-26.88,69.73l-.53,9.54c-.25,4.51-.4,9.39-.03,13.88l.63,7.63c3.33,32.71,17.17,62.63,40.6,85.77l8.96,8.85c.15.15.87-.13.8-.16Z"/>
      <path class="st220" d="M187.13,249.45c-.51,2.3-5.93,4.41-3.71,6.84l4.8,5.26c.52.57,1.08,2.38,2.39,1.53.72-.46,1.56-1.86,2.79-1.39l-3.94,4.25-11.91,12.39c-.63.65-1.08,1.31-1.42,2.12l-14.27-12.26c1.97-2.17,4.54-3.85,6.19-6.77.36-.63.34-1.9.83-2.05l1.73-.53c1.07-.33,1.49-1.72,2.08-2.22l3.09-2.66,5.23-4.7,3.14-2.78,3,2.96Z"/>
      <path class="st201" d="M176.13,280.46l12.32,10.39-9.09,13.76c-10.13,15.34-16.93,32.1-19.72,50.03l-1.77,11.41-.56,8.18c-.39,5.75-.49,11.84,0,17.58l.58,6.92,1.67,10.85,3.85,15.35,2.88,9.09c6.68,16.92,16.1,32.94,29.44,46.52l11.3,11.5c.07.03-.65.31-.8.16l-8.96-8.85c-23.43-23.14-37.27-53.06-40.6-85.77l-.63-7.63c-.37-4.49-.22-9.37.03-13.88l.53-9.54c3.23-25.25,12.13-49.08,26.88-69.73l3.78-4.53-9.08-7-17.47-14.57-2.4,1.94c.75-1.74,2.32-3.08,3.56-4.45l14.27,12.26Z"/>
      <path class="st32" d="M199.53,508.09l5.54,3.93c-.23,1.23.83,1.79,1.92,2.54,6.17,4.26,13.91,10.08,20.55,8.21.25,1.19-.81,2.55-1.83,2.7-1.21-1.17-1.59.85-.14.49,5.28-2.68,5.16-8.77,8.47-4.03.51-4.14,1.08-7.42,2.67-10.75,38.11,17.87,83.71,18.81,123.9.78.08.62.49.9,1,.83l.26,6.55c.07,1.86,1.18,2.64,2.22,4.2,2.28,3.42,6.47,3.16,10.14,2.58,1.11-.18,1.97-.92,2.48-2.46.84-.13.97-.02,1.19-.14.41-.23.5-1.03.22-1.45,6.3-3.15,12.26-5.81,16.76-10.84-.37,1.26.85,1.61,1.49,2.48l6.61,9.01c.31.42.77.8.84,1.37.38,1.21-.17,1.3-.59,2.03-.59,1.03-1.09,1.02-2.16,1.24-.56.79-.94,1.24-1.7,1.72l-8.09,5.05c-.66.41-1.15.89-2.53,1.65l-4.54,2.5c-2.62,1.45-5.91,3.25-8.55,4.08-.76-.28-1.27.32-1.63.57l-1.71,1.18-17.05,6.37-12.05,3.67c-3.17.97-6.36,1.17-9.34,2.45l-4.28.79c-1.82.34-4.4-.1-5.77,1.73-27.79,3.76-56.11,1.52-82.52-7.29.15-.54-.17-1.14-.68-1.45-.43-.26-1.19-.1-1.79-.33l-10.11-3.81-2.56-1.28c-1.17-.58-2.7-1.8-4.07-.71-13.2-6.4-26.5-13.76-37.18-23.89-.41-1.71,2.27-3.09,2.65-5.17s2.52-3.3,3.72-4.93l3.27-4.47c1.59.57,2.8,1.39,3.8,3.16.39-.16.75-.55,1.14-.88Z"/>
      <path class="st46" d="M150.72,445.47c7.15,16.35,17.3,31.63,29.64,45.43.83.93,1.53,1.16,2.28,1.18,5.05,5.69,11.21,10.91,16.89,16-.39.33-.75.71-1.14.88-1-1.77-2.21-2.59-3.8-3.16l-3.27,4.47c-1.2,1.63-3.34,2.87-3.72,4.93-1.16,1.09-2.03,2.31-3.83,3.32l-15.48-15.2-4.48-5.07-4.2-5.14c-1.11-1.36-1.84-2.89-3.26-3.54.21-.77-2.15-4.7-3.48-4.17l-5.95-8.96-7.41-13.1c-.55-.97-.84-1.67-.65-2.56.46-2.17-2.74-4.77-2.37-7.28l9.36-5.09c.93-.5,3.18-1.01,2.92-2.04-.11-.45-.55-.96-.84-1.47.83-.13,1.51-.2,1.85.21.2.24.24.32.94.36Z"/>
      <path class="st31" d="M404.85,525.96c-18.04,13.93-39.41,23.73-62.42,29.52l-12.44,2.82-6.14.83c1.36-1.84,3.95-1.4,5.77-1.73l4.28-.79c2.98-1.29,6.16-1.48,9.34-2.45l12.05-3.67,17.05-6.37,1.71-1.18c.35-.24.87-.84,1.63-.57,2.64-.83,5.93-2.63,8.55-4.08l4.54-2.5c1.37-.76,1.87-1.24,2.53-1.65l8.09-5.05c.76-.47,1.14-.92,1.7-1.72,1.07-.21,1.58-.2,2.16-1.24.41-.73.97-.82.59-2.03.47.03.67.27.9.5.31.31.33,1.07.12,1.35Z"/>
      <path class="st150" d="M187.6,515.2c-.38,2.08-3.06,3.46-2.65,5.17l-17.29-16.39-4.44-5.07-5.04-6.41c-.66-.84-2.15-1.72-1.83-2.93,1.42.65,2.15,2.18,3.26,3.54l4.2,5.14,4.48,5.07,15.48,15.2c1.8-1.01,2.67-2.23,3.83-3.32Z"/>
      <path class="st189" d="M241.33,551.83l-14.8-5.71-4.4-1.87c1.37-1.08,2.9.13,4.07.71l2.56,1.28,10.11,3.81c.6.23,1.36.06,1.79.33.51.31.83.92.68,1.45Z"/>
      <path class="st150" d="M156.35,489.56c-1.65-.85-2.51-2.7-3.48-4.17,1.33-.53,3.68,3.4,3.48,4.17Z"/>
      <path class="st22" d="M300.74,603.89c-.96.03-1.83-.36-2.86-.42l-11.02-.65c2.96-4.08,7.44-5.21,12.86-4.49.62,1.6,1.09,3.66,1.02,5.55Z"/>
      <g>
        <path class="st202" d="M441.13,506.33c-.99.55-3.11.5-3.93,1.43l-8,8.93c-1.94,2.17-3.19,4.23-5.96,5.57l-3.84,3.47c-1.29,1.16-1.41,2.59-2.21,3.47l-4.46,4.95c-.56.62-.39,1.75-1.32,2.43-2.03,1.48-3.14,3.23-3.73,5.69-.08.35-1.09.52-1.26.81s-.13,1.31.22,1.61l1.25,1.1c.48.42.31,1.48-.39,1.91l-9.48,5.74.47.55,12.93-8.03.73-.85c.15-.18.6.81.1,1.09-.24.14-.24.99.87.58.63-.26.99-2.2,2.97-1.61-1.11,1.98-2.77,2.96-4.66,3.79-1.51.66-2.34,2.05-3.32,3.11-.61.66-2.87,1.5-2.34,2.71,2.42,1.34,3.73,3.53,5.06,5.42l-14.28,8.32-7.43,4.12,4.08,9.91c.52,1.27.52,2.33,0,3.18-1.01-.83-1.78.02-2.71.38l-11.8,4.52-11.26,4.14-31.27,5.33c-.56-2.62-.94-4.97-.48-7.51,2.14-1.05,4.82-.89,7.43-1.36l4.88-.88c-.72-.3-.51-1.09-.22-1.32,2.63.94,5.23-.03,7.93-.43,2.43-.36,4.89.67,6.98-.34.55,1.21,2.19.45,2.55-.26.9-1.08.3-1.97-.14-2.9l-3.64-7.78c-.34-.72-.61-1.59-1.54-1.59-.63,0-.95-.78-1.23-1.2-.07-2.05-1.08-4.25-2.44-5.68-1.47-1.54-2.12-3.8-2.52-6.46l13.74-4.97,16.15-7.49c1.18-.55,2.23-1.01,2.1-2.2,7.42-3.96,14.57-8.55,21.26-13.49,13.05-9.64,25.37-21.19,35.61-34.18,1.55.8-3.09,3.53-1.43,6.24Z"/>
        <g>
          <path class="st174" d="M362.66,588.29c.93.3,2.52-.73,2.09-1.67l-4.85-10.85c.94,0,1.21.87,1.54,1.59l3.64,7.78c.43.93,1.04,1.81.14,2.9-.36.71-2,1.47-2.55.26Z"/>
          <path class="st182" d="M347.97,590.38l-4.88.88c-2.61.47-5.29.3-7.43,1.36.03-.17-.08-.34-.09-.5l-.05-1.24c.48.05.86-.07.92-.88,1.79,2.14,3.81-.36,5.24-.28l6.29.66Z"/>
          <path class="st128" d="M358.67,574.57c-1.11-1.66-2.39-3.65-2.44-5.68,1.36,1.43,2.37,3.63,2.44,5.68Z"/>
          <path class="st42" d="M367.95,567.02c.31.03.56.03.8.32.44.54.96-.26.62-.63-.2-.21-.67-.94-.95-.88-.49.1-.33.94-.47,1.19-.73-.5-1.09-.31-1.47-.11-.58.31-.47,1.24-.25,1.28-.64-.16-1.22.09-1.71.78-.56-1.72.49-2.72,1.37-3.38,1.01-.75,2.52-1.09,3.7.04,1.24,1.2,1.23,4.56-.12,5.49-1.56,1.06-4.19.74-4.32-1.41.84,1.11,3.78,1.47,4.06-.07-.58-.65-1.64-1.88-1.24-2.63Z"/>
          <path class="st209" d="M375.04,579.94c-.59.04-.9.64-.67,1.11.15.31.48.45.78.43.12.9-.37,1.29-.68,1.54-.39.31-1.45.64-1.82.08l-2.07-3.08c.57-.21.63-.93.99-1.16.4-.27.91-.17,1.23.58.2-.37,1.2-.93,1.59-.4l.67.89Z"/>
          <path class="st48" d="M384.5,561.93c.53-1.47,1.9-2.24,3.73-3.14,1.23-.6,2.39-2.39,4.42-1.57-1.73,1.47-4.77,2.52-8.14,4.71Z"/>
          <path class="st145" d="M371.46,576.78c-1.4-.4-1.5-.02-1.82.87-.43-1-.41-1.84-.15-3.23.81.7,1.25.69,1.96,2.35Z"/>
          <path class="st42" d="M366.23,568.2c.47,0,1.16.07,1.33.33.15.23.06.71-.36.96-.24.14-.74.05-.91-.25-.13-.24-.11-.58-.06-1.03Z"/>
          <path class="st63" d="M378.29,587.14c.41-.13.63.35.8.46.33.22.24.6-.06.64-.39.04-.87.06-1.23,0-.29-.06-.23-.86.5-1.09Z"/>
          <path class="st99" d="M375.14,581.48c-.3.02-.63-.12-.78-.43-.23-.47.08-1.07.67-1.11.56.04.8.81.6,1.02l-.5.52Z"/>
          <path class="st209" d="M370.57,580.02c-.36.3-.51-.07-.58-.3-.15-.48-.1-1.31.43-1.55.4.72.13,1.5.14,1.85Z"/>
          <path class="st137" d="M375.68,588.08c.39-.71.82-.02.93.14.21.31.1.56-.09.67-.47.28-1.18-.21-.84-.81Z"/>
          <path class="st80" d="M367.95,567.02c.14-.26-.03-1.09.47-1.19.28-.06.76.67.95.88.34.36-.18,1.17-.62.63-.24-.29-.48-.29-.8-.32Z"/>
        </g>
      </g>
      <path class="st28" d="M125.75,341.45l12.8,3.94c.52.17,1.82.34,2.05.8,1.74,3.54-.25,6.3-.6,8.46l-.64,3.93c-1.04,1.7,1.26,5.34-1.16,9.84-1.01,1.87-.14,4.42-.1,6.75l.41,21.76c1.62,17.01,5.59,33.36,12.22,48.52-.7-.04-.74-.12-.94-.36-.34-.4-1.02-.34-1.85-.21.29.51.72,1.02.84,1.47.25,1.04-2,1.54-2.92,2.04-.6-.15-1.26-.2-1.79.07l-8.35,4.24-3.91-9.9-4.13-12.01-.28-2.94-2.06-8.33-2.17-13.11c.45-.68-.2-1.31-.53-.98-.13.13-.19.42-.69.41l.04-1.27c1.45-2.37.15-5.39.15-8.08v-25.7c0-2.69,1.3-5.71-.11-8.24.67-6.32,1.87-15.77,3.73-21.1Z"/>
      <path class="st152" d="M182.64,492.08c-.75-.02-1.45-.25-2.28-1.18-12.33-13.8-22.49-29.08-29.64-45.43-6.63-15.17-10.6-31.51-12.22-48.52l-.41-21.76c-.04-2.33-.91-4.88.1-6.75,2.42-4.5.12-8.14,1.16-9.84l.64-3.93c.35-2.16,2.34-4.92.6-8.46-.23-.46-1.53-.63-2.05-.8l-12.8-3.94c.23-.71.02-1.82.21-2.56l17.65,6.06c-2.75,11.98-4.15,23.32-4.31,35.27-.03,2.32-.33,4.1-.19,6.58l.65,12.1c3.16,32.41,16.45,62.43,37.71,87.33l5.16,5.84Z"/>
      <path class="st211" d="M121.98,404.58c.03-1.13-.3-2.21-.37-3.4l-.53-8.75c-.35-5.74-.36-11.84,0-17.58l.55-8.71.38-3.59c1.41,2.53.11,5.55.11,8.24v25.7c0,2.69,1.3,5.71-.15,8.08Z"/>
      <path class="st177" d="M145.85,448.41l-9.36,5.09c-.37,2.52,2.83,5.11,2.37,7.28-5.04-8.45-7.94-18.05-11.17-27.4-.31-.89-.72-1.26-.02-2.57l4.13,12.01,3.91,9.9,8.35-4.24c.54-.27,1.19-.23,1.79-.07Z"/>
      <path class="st177" d="M127.67,430.81c-2.98-6.29-3.52-13.67-4.84-20.78-.28-1.5.08-3.05-.89-4.17.5.01.56-.28.69-.41.33-.33.98.29.53.98l2.17,13.11,2.06,8.33.28,2.94Z"/>
      <path class="st115" d="M160.8,229.21c-2.19.81-4.48,2.21-5.7,4.08-.3.19-.88.23-1.33.13,1.71-2.26,3.64-4.08,6.33-5-.04.4.26.62.7.79Z"/>
      <g>
        <path class="st160" d="M162.65,232.7l-3.63,3.69,3.68,3.34c1.9-.66,3.08-2.11,4.46-3.84.3-.88,1.74-.7,1.25.68-9.92,8.53-19.38,17.81-26.5,28.66l-9.89,15.07-2.71-2.62c-.22-.33-.45-1.15-.84-1.2-.29-.03-1.04.1-1.2.27l-1.17-1.09c.36-.54.26-.77-.15-1.18l-6.44-6.51,3.75-3.97c3.68-3.89,6.87-8.05,11.24-11.22.83-.6.71-1.34.96-1.76.52-.89,1.24-1.91.66-3.22.74-.36,1.26.02,1.5,0-.13.66.92,1.41,1.19.85,1.54-3.2,3.91-4.94,6.16-7.27l.75-.77c.12-.12-.02-.49-.45-.57.54-.55,1.21-.62,1.84-1,2.38-1.42,5.02-3.4,6.68-5.6.45.1,1.02.05,1.33-.13l1.27,2.64-3.49,2.76c-.54.43.15,1.5.63,1.42,1.05-.16,1.22-1.02,1.77-1.51l7.36-5.91Z"/>
        <g>
          <path class="st171" d="M135.44,251.02c-.25.42-.13,1.16-.96,1.76-4.37,3.17-7.56,7.33-11.24,11.22l-3.75,3.97,6.44,6.51c.41.41.51.64.15,1.18l-6.65-6.59c-.37-.37-.6-1.28-.51-1.59-.11.39,1.75-2.26,1.73-2.24,2.34-1.99,4.36-4.84,6.65-7.2s4.51-4.01,6.41-6.24c-.89-.61-.25-1.05.13-1.27.55-.32,1.05.19,1.6.48Z"/>
          <path class="st218" d="M137.61,247.79c.83-.15,1.21-1.23,1.9-1.93l5.74-5.83c.43.08.57.45.45.57l-.75.77c-2.25,2.32-4.62,4.07-6.16,7.27-.27.56-1.32-.19-1.19-.85Z"/>
          <path class="st115" d="M153.77,233.43c-1.66,2.19-4.3,4.17-6.68,5.6l5.61-5.42c.22-.21.83-.26,1.07-.18Z"/>
          <path class="st0" d="M162.65,232.7l-7.36,5.91c-.55.48-.72,1.34-1.77,1.51-.48.08-1.17-.99-.63-1.42l3.49-2.76,4.98-4.4c.37-.33,1.09-.65,1.55-.67.56-.03.54,1.03.05,1.2-.2.07-.6.15-.3.65Z"/>
          <path class="st102" d="M146.5,246.36c-1.42,1.6-2.23,3-3.91,3.93.11-1.21,1.19-2.43,1.9-3.04l5.98-5.18c-.16,2.1-2.61,2.75-3.97,4.29Z"/>
          <path class="st225" d="M140.19,252.55c.86.28.37,1.53-.68,1.8-.62.16-1.14-.11-1.69-.85-.44-.6-.07-1.64,1.02-1.89.31.22.54.67,1.35.94Z"/>
        </g>
      </g>
      <g>
        <path class="st124" d="M391.72,186.63c-.27-.11-.64-.2-.85-.07s-.11.83-.29,1.21l-8.26,17.37c-.73,1.53-1.99,2.99-1.69,4.51-1.76,1.03-1.66,5.5-3.44,5.03-.23-.06-.53.48-.46.89-8.1-3.76-16.51-6.75-24.93-9.47l.74-1.13s-.83-.39-.64-.85l7.68-18.66c.58-1.42,1.53-2.72.76-4.12,2.31-1.81,3.54-4.65,4.57-7.42,1.19-1.11,2.65.02,4.01.56,6.78,2.72,24.04,9.12,22.81,12.14Z"/>
        <g>
          <path class="st100" d="M391.72,186.63l-6.49,15.85c-.22.53-.15,1.16-1,1.54-2.23,1.01-1.74,4.68-3.61,5.64-.29-1.52.96-2.98,1.69-4.51l8.26-17.37c.18-.38.08-1.07.29-1.21s.58-.04.85.07Z"/>
          <path class="st134" d="M360.33,181.34l2.19-4.62c.44-.94,1.55-2.02,2.38-2.79-1.03,2.76-2.27,5.6-4.57,7.42Z"/>
          <path class="st114" d="M371.06,186.38c1.2.73,2.07-.45.53-1.02.3-.61.93-.95.92-1.28.95.42.94,1.39.91,3.01,2.13-1.72.52-3.02-.24-4.29-.7-1.17-2.37-.64-3.11.34s-.76,1.81-.47,3.01c-1.35-.56-1.23-2.61-.34-3.63.96-1.1,1.75-1.9,3.51-1.27,1.35.48,2.71.48,3.26,2.02s.35,2.93-1.14,3.59c-1.03.46-3.06.98-3.84-.47Z"/>
          <path class="st139" d="M373.19,182.8c-.32-.12-.7.08-.69.33l.02.96c0,.33-.62.66-.92,1.28,1.53.57.67,1.75-.53,1.02,0-.34-.78.12-1.44-.23-.29-1.2-.29-2.01.47-3.01s2.41-1.51,3.11-.34Z"/>
          <path class="st100" d="M378.01,216.07c-.38-.19-1.06-.21-1.29-.5-.07-.41.23-.95.46-.89,1.78.46,1.68-4,3.44-5.03.21,1.06-1.22,4.48-2.61,6.42Z"/>
          <path class="st44" d="M372.51,184.08l-.02-.96c0-.25.38-.44.69-.33.76,1.27,2.37,2.57.24,4.29.03-1.62.03-2.59-.91-3.01Z"/>
        </g>
      </g>
      <g>
        <path class="st173" d="M479.97,427.71c-.8-.56-1.53,0-1.02.81l12.51,4.36,8.04,2.14c3.23.86,6.74,1.33,9.84,3.33-1.58,7.58-3.92,14.52-6.58,21.43-.34.87-1.46,1.36-2,1.6-.26-.87-1.29-.85-1.98-1.09l-9.93-3.37-6.59-1.51c.63,2.04-.44,3.23-.81,4.29-.66-1.28-1.25-.16-1,.24-.81,1.48-1,2.76-1.43,4.19-1.16-.23-1.26-.85-1.35-1.17-.1-.37.11-1.08.46-1.37-1.18.2-1.7-.4-1.33-1.4.19-.51-.06-1.07-.31-1.2-.21-.11-.62-.1-.93-.04-.06-.15-.17-.68.48-.87-2.13-1.91-4.83-1.81-7.53-3.55,1.1-.89,1.46-2.09,1.86-3.26l4.66-13.56,3.13-12.11c.6.13.99.56.44,1.65.85-.52,1.35-.21,1.38.46Z"/>
        <g>
          <path class="st205" d="M499.2,450.6c-2.32-.83-3.18-3.41-2.19-5.19s2.75-1.83,4.18-1.21c1.73.75,2.17,1.77,1.88,3.81-.21,1.48-1.64,3.39-3.87,2.6Z"/>
          <path class="st2" d="M499.56,448.85c.99.21,1.74-2.59.75-3.46,2.05-.08,2.21,1.67,1.97,2.52-.47,1.67-1.25,2.03-3.15,1.45-.93-.28-2.2-1.39-.93-2.77.36-.39.49-.66.52-1.06.04-.8,1.6-.51,1.12.34-.34.61-1.58,2.32-.28,2.99Z"/>
        </g>
      </g>
      <g>
        <path class="st223" d="M506.6,325.73c-5.54,2.45-11.46,5.44-16.41,8.85l-1.4.58-10.67,5.06c-1.93-7.78-3.98-15.61-6.88-23.1.9-.12,1.99-.53,2.69-.99,1.62-1.07,3.03-1.13,4.68-1.66l15.76-5.02c1.55-.49,4.94-2.24,6.19-.61,2.7,3.52,6.2,13.9,6.04,16.89Z"/>
        <path class="st57" d="M496.98,317.72c-.32.4-.23,1.05.13,1.26.19.11.68.07,1.02.03-.46.56-.68.8-.36,1.3.24.38.11.99.74,1.17.48-1.04.34-2.22-.38-2.47l-.14-1.48c.41-.6,1.46-.71,1.97-.13,1.08,1.23.68,4.29-.35,4.85-.56.31-1.89-.04-2.83-.34-.86-.28-1.5-4.75.2-4.18Z"/>
        <path class="st228" d="M488.78,335.16c.15.74,0,1.41-.74,1.72l-9.62,4.06c-.47-.16-.25-.5-.31-.73l10.67-5.06Z"/>
        <path class="st90" d="M497.98,317.52l.14,1.48c-.34.04-.83.09-1.02-.03-.35-.2-.44-.85-.13-1.26.32.11.88,0,1-.2Z"/>
        <path class="st155" d="M498.13,319c.72.25.86,1.43.38,2.47-.64-.18-.5-.79-.74-1.17-.32-.5-.1-.74.36-1.3Z"/>
      </g>
      <path class="st93" d="M160.8,229.21c-.44-.16-.74-.39-.7-.79-.17-.64.41-.59.61-.37l.6.67c.1.11-.38.47-.52.49Z"/>
      <path class="st19" d="M362.67,511.38l-2.06.59c-40.19,18.03-85.79,17.09-123.9-.78.16.29-.7.46-1.02.19-.59.05-.85-.52-.7-1.06l-6.41-3.03c-.97-.46-1.21-.94-1.6-1.52l8.53,3.98,15.14,6.09,4.99,1.41c10.33,2.92,21.2,5.34,32.19,6.07,1.02-.89,2-.73,3.14-.21,2.67,1.23,5.9.66,9.19.73v-7.4s-6.87-.05-6.87-.05c-.21-.43-.17-.97-.23-1.15,18.78.82,37.78-2.3,55.05-8.74,12.22-4.55,23.91-10.81,34.31-18.76-.56,2.26.48,2.99,1.97,4.94.42.55.07,1.98,1.49,2.11,1.06.1,1.03.09,1.97-.41,1.55-.82,2.46-1.86,3.33-2.45,1.75-.69,3.67-2.29,5.07-3.69l10.62-10.59c2.78-2.77,5.08-5.7,7.34-8.85l4.24-5.89c.73,1.18-.28,1.93-.93,2.79l-5.7,7.61-4.43,4.98-10.56,10.61c-7.74,7.77-16.99,13.23-26.57,18.38l-7.6,4.08Z"/>
      <path class="st58" d="M423.7,454.61l-5.25,8.31-4.24,5.89c-2.26,3.15-4.57,6.08-7.34,8.85l-10.62,10.59c-1.4,1.4-3.32,3-5.07,3.69-.87.59-1.79,1.63-3.33,2.45-.94.5-.91.51-1.97.41-1.42-.13-1.07-1.56-1.49-2.11-1.49-1.96-2.53-2.68-1.97-4.94,14.44-11.04,26.47-24.86,34.99-40.77,2.68.81,4.89,2.68,6.85,4.83l-1.96,2.64c.79.48,1.15.17,1.43.17Z"/>
      <path class="st215" d="M440.33,349.7c3.99,17.67,4.61,36.38,1.5,54.42l-1.46-3.23-7.34-1.5.4-5.07.51-6.94c.84-2.39.19-4.85.18-6.91,0-1.47.46-2.71-.15-4.32-.76-2.01-.08-4.76-.31-6.98-.13-.24-.48-.27-.62-.23.23-2.45-.26-5.25-.69-8.05l-.77-5.08c-.23-1.54-1.03-4.07,1.03-4.74,4.86-1.6,7.2-2.77,7.7-1.35Z"/>
      <path class="st39" d="M437.42,423.38c-3.22,10.95-7.65,21.63-13.71,31.23-.28,0-.63.31-1.43-.17l1.96-2.64c-1.95-2.15-4.17-4.02-6.85-4.83l.58-1.09c4.49-8.39,8.47-17.09,10.8-26.31,3.05.16,6.56,1.31,8.64,3.8Z"/>
      <path class="st13" d="M441.84,404.11c-.95,6.53-2.56,12.95-4.42,19.27-2.08-2.49-5.59-3.64-8.64-3.8l2.37-9.39,1.89-10.82,7.34,1.5,1.46,3.23Z"/>
      <path class="st117" d="M421.35,487.1l-5.2,5.61c-6.37,6.88-13.33,13.01-20.64,18.64l-.63-.11c-4.5,5.03-10.47,7.69-16.76,10.84-3.97,1.99-10.38,1.28-14.21-1.83-.64-.82-1.05-1.07-2.05-.9l-.26-6.55c-.51.07-.92-.21-1-.83l2.06-.59c1.19,4.58,4.69,8.84,9.75,9.87,3.1.64,5.63-.07,8.3-1.62,12.89-7.46,24.69-16.57,34.79-27.5l5.51-5.96.33.92Z"/>
      <path class="st187" d="M421.35,487.1l-.33-.92,10.73-13.48c.38,1.63-1.49,2.99-2.34,4.22l-5.29,7.61c-.73,1.05-1.98,1.7-2.78,2.57Z"/>
      <path class="st129" d="M435.61,467c-.31-1.07,1.03-2.29,1.54-3.25l6.19-11.72.84.07-1.24,3.03-5.62,9.94c-.43.77-.92,1.92-1.71,1.93Z"/>
      <path class="st156" d="M402.98,522.73l-6.61-9.01c-.64-.87-1.86-1.21-1.49-2.48l.63.11,3.91,5.11c1.47,1.92,3.34,3.8,3.56,6.27Z"/>
      <path class="st67" d="M440.01,348.43c.05.34-.11,1.01.32,1.27-.5-1.42-2.84-.25-7.7,1.35l6.25-3.36c.07-.65-.79-2.21.35-2.59l.78,3.33Z"/>
      <path class="st129" d="M431.75,472.7c-.21-1.22.9-1.45,1.55-1.78-.48.75-1.06,1.16-1.55,1.78Z"/>
      <path class="st129" d="M433.3,470.92c-.12-.82.41-1.66,1.22-1.9l-1.22,1.9Z"/>
      <path class="st129" d="M434.52,469.02c.1-.67-.2-1.91,1.09-2.02.38,1.31-.76,1.51-1.09,2.02Z"/>
      <path class="st151" d="M311.78,253.91c1.11,1.09,5.68-.66,8.84.79,3.9,1.79,7.49,1.45,11.05,2.38,1.81.47,4.15,2.61,6.47,1.62.95-.07,2.31,1.62,3.53,1.82,4.33.72,7.83,2.74,11.43,4.32,2.28,1,4.73,1.51,6.94,3.11,2.89,2.09,5.87,4.21,9.57,5.16,1.79.46,3.36,1.31,4.21,2.83.43.77,1.46,2.11,2.33,2.28.18,1.72,1.87,2.72,3.24,3.92l5.02,4.4,12.47,12.42c1.66,1.66,2.53,3.27,3.52,5.05l5.18,9.37.8,1.47c.29.53,1.23.52,1.74.37.19.35.43.95.67,1.21-.33.66-.65,1.18-.66,1.65-.02,1.12,1.13,1.21,1.92,1.05l.61,4.2-14.25.05c0,.86-.29,1.12-.81,1.27-.72.21-1.66,1.33-2.07,1.93-9.14,2.93-18.21,5.94-27.02,10.14-1.04.5-1.7.71-2.78.47l-3.46-13.8-21.47-.07c-.82,0-.97.81-1.34,1.14-1.27,1.09-1.96,2.59-2.8,4.02l-6.26,3.53c-.7-.63-1.77-1.39-2.7-1.94-2.66-1.59-4.93-3.94-8.34-5.37-9.79-4.11-21.06-4.08-30.77.18-5.31,2.33-8.55,6.46-12.07,10.37-3.31,3.68-6.39,7.6-9.4,11.87-.68.97-1.39.92-2.41.38-2.43-14.44-13.86-24.93-28.73-25.66-9.02-.44-17.69,1.86-24.35,7.69-.32-.81-.64-.36-.86-.2-.41.3-.74.76-.37,1.22-2.21,2.38-4.39,4.85-5.76,7.84-.3-.04-.65-.09-.94,0-.76.24-.34.94-.51,1.23l-3.61,6.08-1.55.76c-.33.16.04.75.21,1.14-.58,1.01-1.31,2.3-2.35,2.67-2.49.89-3.12,4.08-5,5.54l-5.69,4.42c-1.41,1.09-2.91,2.57-4.32,1.9-3.03-1.44-6.9-.27-10.57-.78-.27-.04-.18-1.3.06-1.43s-.49-.65-.88-.45l.72-4.86c.91.26,1.32-.1,1.34-.94.01-.66.18-1.4-.66-1.55l1.18-5c.29.04.78.11,1.01-.02.24-.14.12-.7.39-1.35l.59-1.44c.22-.54-.2-1.03-.97-1.04l.94-3.01c1.39.12,1.87-1.62,1.96-2.96.15-.23.58-.64.55-1.12-.03-.39.05-.89-.7-.96l5.04-11.84c.29.04.7.07.93-.01.35-.13.38-.81.46-1.05.61-1.12,1.54-2.24,1.34-3.37s1.1-2.19,1.36-3.18c.53.32,1.23-.34,1.42-.8s.91-1.17,0-1.67l1.34-2.43c1.7.24,4.21-4.29,3.04-4.44.27-.4.61-1.21,1.25-1.19,1.28.04,1.11-1.23,1.49-1.74s1.56-1.03,1.06-2.09c-.06-.13-.08-.42,0-.56.76.22,1.22-.06,1.65-.57.37-.45.38-.88.22-1.39-.05-.17-.04-.35-.02-.57,1.48.06,3.23-1.57,3.19-3.03,2.39-1.17,8.19-9.73,16.75-15.6l3.4-1.29,10.29-6.5c.73-.46,2.3-1.01,3.37-1.01,2.99-3.01,6.92-4.02,10.44-5.57.91-.4,1.41-1.32,2.65-.95,4.16-.66,7.03-3.97,10.17-3.9.96.02,2.74-.91,3.42-1.43,1.4-1.08,2.76-.22,3.6-.43,2.49-.62,4.7-2.1,4.79-2.03,1.52,1.17,2.23-2.19,3.12-1.25l.94,1c.67-.84,1.66-.51,1.95-.66.19-.09-.59-.77-.47-.97,1.21.1,2.1-.1,2.98-.49-.19,1.31,1.47,1.36,1.76.8.37-.71.44-.9,1.16-.92.51,0,.73.11.87.35.3.53-.16.89-.38.75-.59-.39-1.5.31-.82,1.14l3.22-1.31c.56-.23.96-1.43,1.54-1.54.77-.14,1.41.2,2.06.44,1.12.42,1.98-.28,2.79-.27l7.03.11c4.72.07,9.66-.66,14.73.01.78.1,2.23-.51,2.88.13Z"/>
      <path class="st67" d="M432.63,351.05c-2.06.68-1.26,3.2-1.03,4.74l.77,5.08c.43,2.8.91,5.6.69,8.05-.52.14-.89.59-.68,1.01l.72,1.46-.33,21.46-.87,7.33-1.98,11.27c-.17.14-.75-.11-.7-.32.09-.4-.34-.59-.55-.88-1.82-2.4.98-11.68.99-13.9l.05-18.99-.1-4.62c-.02-.88-2.1-4.32-1.95-10.88.08-3.56-1.52-6.73-2.47-9.79-.73-2.36-.82-4.9-2.16-6.75-1.97-2.69-2.71-6.09-3.65-9.27.68-.35.37-.83.21-.82-.45.03-1.06.32-1.32.59.2-1.88-1.31-2.36-2.48-2.51l2.53-10.41c-2.34.3-3.92,0-5.52.18.36-.22.37-1.18.4-1.56.94.1,1.53-.31,1.73-1.06.14-.53-.27-1-.95-1.04.05-1.32.16-3.28,1.64-3.94l-2.5-5.23c.96.08,1.28,1.12,1.77,1.93,7.24,11.99,12.64,24.78,15.65,38.55.81.19,1.61.2,2.12.31Z"/>
      <path class="st126" d="M325.72,250.88c1.34-.39,1.26,1,.09.71l-7.85-.81-1.35-.67c-.51-.26-.97,1.35-.49,1.44.69.12.73.56.71.8-.01.22-.37.96-.82,1.06-1.36-.04-3.21-.46-4.23.49-.65-.64-2.11-.03-2.88-.13-5.07-.67-10.01.06-14.73-.01l-7.03-.11c-.81-.01-1.67.68-2.79.27-.64-.24-1.29-.58-2.06-.44-.58.11-.98,1.31-1.54,1.54l-3.22,1.31c-.68-.83.23-1.52.82-1.14.21.14.68-.22.38-.75-.14-.24-.36-.36-.87-.35-.72.01-.79.2-1.16.92-.29.56-1.95.51-1.76-.8-.89.39-1.77.59-2.98.49-.11.2.66.87.47.97-.29.14-1.27-.18-1.95.66l-.94-1c-.89-.95-1.6,2.42-3.12,1.25-.09-.07-2.3,1.4-4.79,2.03-.85.21-2.2-.65-3.6.43-.68.52-2.46,1.45-3.42,1.43-3.14-.07-6.01,3.24-10.17,3.9-1.24-.38-1.74.55-2.65.95-3.53,1.55-7.45,2.56-10.44,5.57-1.07,0-2.64.55-3.37,1.01l-10.29,6.5-3.4,1.29c-8.56,5.87-14.36,14.43-16.75,15.6-.02-.86.18-1.21.67-1.7,7.35-7.41,14.55-15.1,23.25-20.95,1.52-1.02,2.95-2.55,4.77-3.45,4.26-2.11,7.8-4.78,11.86-6.44.09.88,1.09.82,1.56.68.32-.1.88-1.08,1.25-1.07,1.17.05,2.96-1.52,4.03-1.89l16.35-5.7,11.16-2.74,15.64-2.46c.29-.05,1.11.3,1.28-.18.09-.24.05-.54,0-.9l7.56-.08c9.93-.11,19.54.21,28.78,2.51Z"/>
      <path class="st75" d="M411.86,308.38c-.19.9.33,1.81,1.22,1.88l2.5,5.23c-1.48.66-1.59,2.62-1.64,3.94.67.04,1.09.51.95,1.04-.2.75-.79,1.16-1.73,1.06-.03.38-.04,1.34-.4,1.56l-2.12.25-.61-4.2c-.14-.95-.49-2.21-1.26-2.7-.24-.25-.48-.86-.67-1.21l-4.42-8.18-2.31-3.27c-.34-.48-.89-.42-.99.24-.98-1.78-1.85-3.39-3.52-5.05l-12.47-12.42-5.02-4.4c-1.37-1.2-3.06-2.2-3.24-3.92,3.17.64,4.55,5.05,8.33,2.47l3.66,3.96,10.64,11.2c1.28,1.35,5.53,9.38,6.24,9.73s1.38.35,2.41.27c-.56,1.04.4,1.55.86,1.04.23-1.37,1.22-1.01,1.59-.72.94.75.74,2.29,1.99,2.19Z"/>
      <path class="st188" d="M411.86,308.38c-1.24.1-1.04-1.44-1.99-2.19-.37-.29-1.36-.65-1.59.72-.46.52-1.43,0-.86-1.04-1.03.08-1.7.07-2.41-.27s-4.96-8.38-6.24-9.73l-10.64-11.2-3.66-3.96c-3.78,2.58-5.16-1.83-8.33-2.47-.86-.17-1.9-1.51-2.33-2.28,1.13-.28,1.93.15,3.4,1.04-.77-1.77-2.55-2.97-4.16-4.18-.54-.68.53-1.93,1.28-1.35,2.26,1.76,5.05,2.88,6.9,5.04.98,1.15,2.66.73,3.57,1.4,10.23,7.53,18.19,16.97,25.25,27.18.8,1.16,1.81,2.03,1.82,3.29Z"/>
      <path class="st4" d="M350.28,257.76l8.54,3.93-.45.56-9.88-4.16c-1.73-.73-3.42-1.33-5.47-2.07-1.09-.39-2.77.16-3.45-1.66-.77.68-1.5.19-1.39-.5l2.25.35,9.85,3.54Z"/>
      <path class="st133" d="M334.89,252.67c.21.66-.29.92-.84.77-.25-.07-1,.15-1.06-.98.6-.24,1.3.16,1.9.21Z"/>
      <path class="st20" d="M211.11,268.12c2.16-.12,5.23,3.28,6.74,5.89,1.04-1.26,2.56-1.82,3.64-1.39-8.7,5.85-15.9,13.54-23.25,20.95-.25-.73-.1-1.47-.41-1.51l-1.34-.17-4.77-4.16c5.59-7.28,12.32-13.76,19.39-19.61Z"/>
      <path class="st1" d="M289.38,248.45c.06.36.1.67,0,.9-.18.48-1,.13-1.28.18l-15.64,2.46-11.16,2.74-16.35,5.7c-1.07.37-2.85,1.95-4.03,1.89-.37-.02-.93.97-1.25,1.07-.47.14-1.47.2-1.56-.68,13.69-6.82,28.41-11.36,43.95-13.45,2.58-.35,5.04.08,7.31-.82Z"/>
      <path class="st206" d="M198.23,293.57c-.49.5-.69.85-.67,1.7-1.28.63-2.3,1.96-3.19,3.03-.03.22-.03.41.02.57-.71.5-1.45,1.2-1.87,1.96-.08.14-.06.44,0,.56-1.09.2-.98,1.37-1.06,2.09-.6.31-1.82.61-1.49,1.74-.64-.02-.98.8-1.25,1.19l-3.04,4.44-1.34,2.43-1.31,2.07c-.72-.32-1.31-.25-1.61.42l-.74,1.61-5.75,11.97-1.58,3.54c-.42.94-1,2.69-1.39,3.87l-.6,1.81c-.08.23-.38.89-.37,1.22-1.94,3.15-.91,8.11-3.63,10.28,1.09.98.3,1.71-.03,2.1.31,1.16.1,2.34-.49,3.16-.36.49-1.21.5-2.39-.22l-4.81-.46c2.79-17.94,9.6-34.7,19.72-50.03l9.09-13.76c.68-.36,1.1-1.16,1.71-1.71l1.57-1.41,4.77,4.16,1.34.17c.31.04.17.78.41,1.51Z"/>
      <path class="st190" d="M197.26,279.96l-5.33,5.99c-.85.96-2.05,1.84-1.79,3.19-.6.54-1.02,1.35-1.71,1.71l-12.32-10.39c.34-.81.79-1.46,1.42-2.12l11.91-12.39c-.12,0,.24-.14.81.07,1.44-1.39,3.09-3.38,4.9-4.51l1.17,1.61c.19.26,1.01.33,1.63-.16,1.1.41,2.85,3.73,1.69,4.82-2.69,2.52-5.3,4.18-7.01,7.54,1.55-.56,3.27.17,3.61,1.91.2,1.02.14,1.93,1.02,2.73Z"/>
      <path class="st112" d="M197.31,258.49c-.36.68-.14,1.33.37,1.46,2.72.68,4.18,4.11,5.51,6.63.88,1.66,3.24,2.77,2.61,4.98l-8.53,8.41c-.87-.8-.82-1.7-1.02-2.73-.33-1.74-2.06-2.47-3.61-1.91,1.71-3.36,4.32-5.02,7.01-7.54,1.16-1.09-.59-4.42-1.69-4.82-.62.49-1.45.42-1.63.16l-1.17-1.61c-1.81,1.13-3.46,3.12-4.9,4.51-.56-.21-.93-.07-.81-.07l3.94-4.25c.77-.77,1.61-1.51,3.23-2.33l-7.77-7.89.7-.11,6.64,6.6c.3.29.89.67,1.11.52Z"/>
      <path class="st212" d="M188.86,251.48l7.77,7.89c-1.62.82-2.46,1.56-3.23,2.33-1.23-.47-2.07.92-2.79,1.39-1.31.85-1.87-.97-2.39-1.53l-4.8-5.26c-2.22-2.43,3.2-4.54,3.71-6.84.65.64,1.11,1.39,1.74,2.03Z"/>
      <path class="st122" d="M205.8,271.55c.63-2.2-1.74-3.31-2.61-4.98-1.32-2.51-2.79-5.95-5.51-6.63-.5-.13-.73-.78-.37-1.46.33-.23.86-.69,1.24-.7l10.33,10.76c-.67,1.4-2.18,2.11-3.09,3.01Z"/>
      <path class="st43" d="M236.7,511.19c-1.59,3.34-2.17,6.62-2.67,10.75-3.31-4.75-3.19,1.34-8.47,4.03-1.45.37-1.07-1.66.14-.49,1.03-.15,2.08-1.52,1.83-2.7-6.63,1.87-14.38-3.95-20.55-8.21-1.09-.76-2.15-1.31-1.92-2.54l11.23,7.48c3.63,2.42,8.41,3.34,12.45,1.16,3.7-1.99,5.88-5.7,6.94-9.29.31.27,1.18.09,1.02-.19Z"/>
      <path class="st201" d="M226.98,505.77c-.47-.22-1.26-.08-1.97-.55l-10.55-7c-2.8-1.85-5.33-4.02-7.45-6.18l13.69,9.33c2.15,1.52,4.78,2.49,6.28,4.4Z"/>
      <path class="st39" d="M224.39,493.3c-.11,1.93,2.06,2.45,3.53,3.37,9.24,5.81,18.82,9.98,29.5,13.28l-1.69,5.26c-.3.92-.3,1.11-.1,2.04l-4.99-1.41-15.14-6.09-8.53-3.98c-1.51-1.92-4.14-2.88-6.28-4.4l-13.69-9.33-11.3-11.5c-13.34-13.58-22.75-29.6-29.44-46.52-.2-.21.05-1.15.71-.73l7.36-1.82c10.12,24.97,27.53,46.74,50.05,61.82Z"/>
      <path class="st120" d="M183.04,315.36l-.1.4c-.26.99-1.56,2.08-1.36,3.18l-2.72,4.42-5.04,11.84-1.81,5.05-.94,3.01-1.02,3.85-1.18,5-.68,2.49-.72,4.86c-1.6,10.76-2.49,21.66-1.75,32.55.79,11.57,3.09,22.99,6.76,33.91-.15.06-.81.27-1.02.05-.02-1.07-.47-1.73-1.08-2.06-.66-.37-1.28.85-1.7,1.09-1.56.49-3.9.07-5.28-.06l-3.85-15.35-1.67-10.85-.58-6.92c-.48-5.74-.38-11.83,0-17.58l.56-8.18,1.77-11.41,4.81.46c1.19.72,2.04.71,2.39.22.6-.82.8-2,.49-3.16.33-.4,1.11-1.12.03-2.1,2.71-2.16,1.69-7.13,3.63-10.28-.01-.33.3-.99.37-1.22l.6-1.81c.39-1.18.97-2.92,1.39-3.87l1.58-3.54,5.75-11.97.74-1.61c.3-.66.89-.74,1.61-.42Z"/>
      <path class="st154" d="M172.46,425.91l.61,1.82,1.27,3.74-7.36,1.82c-.67-.42-.92.52-.71.73l-2.88-9.09c1.38.13,3.72.55,5.28.06.43-.24,1.04-1.46,1.7-1.09.61.34,1.06,1,1.08,2.06.21.22.87,0,1.02-.05Z"/>
      <path class="st167" d="M378.12,522.08c.29.42.19,1.22-.22,1.45-.22.12-.35,0-1.19.14-.51,1.53-1.37,2.28-2.48,2.46-3.67.58-7.87.84-10.14-2.58-1.04-1.56-2.15-2.34-2.22-4.2,1-.17,1.41.09,2.05.9,3.83,3.1,10.24,3.82,14.21,1.83Z"/>
      <g>
        <path class="st17" d="M119.29,421.03c3.68,18.54,9.77,36.72,19.22,53.06l5.21,9c-.72-.07-.78.33-.84.66-.21,1.29.43.8.9,1.49l7.78,11.53,4.25,5.75-8.67.21c-.03,1.11-.74,1.51-1.22,1.71-2.14.86-2.34-1.43-3.97-1.15l-5.48-6.36c-.24-1.22-.99-2.01-1.8-3.24l-2.9-4.42-2.95-4.76c-.61-.98-.88-2.32-1.78-2.43-.09-1.03-.71-1.5-1.19-2.01-.2-1.65-1.22-3.82-2.63-5.04,0-2.05-1.56-3.87-2.49-6.1-2-4.84-3.64-9.75-6.83-13.84-.75-.69-1.6-.42-1.36.56,1,.03,1.04.4,1.3.77-1.22,1.7-2.57-2.97-4.32-1.59-.63.5-.66,1.48-.36,2.25-.1.16-1.24-.15-.99-.32.35-.24-.16-1.66-.47-1.53l-13.39,5.43c-.51.21-1.9.23-1.76.99.08.43.38.84-.02,1.47-3.53-1.84-7.24-16.65-9.15-24.2-.41-1.63.75-2.9,2.15-3.37l17.07-5.76c2.94-.99,3.86-4.04,2.61-7.25-.36-.92.21-2.33-.98-2.76l-1.9-15.37c-.6-1.9-.57-3.97-.05-6.11l3.09,20.45c.45,2.95,1.84,6.42.56,9.19s-4.91,3.9-7.43,5.12c-.72.35.51,1.75,1.32,1.45.75-.29.97-.39,1.2-1.28,1.35.93,2.42.69,3.49.16l9.96-4.97c.35-.44.86-.47,2.07-.45l1.77-2.82c.78-1.25-.08-3.15.96-4.1Z"/>
        <g>
          <path class="st3" d="M92.44,449.02c-.46-1.61-1.03-3.04.76-3.9,2-.96,4.29-1.06,5.58.98.92,1.45.32,3.7-1.48,4.74s-4.22.46-4.87-1.81Z"/>
          <path class="st6" d="M93.19,446.79c.07-1.05,2.11-1.61,3.02-1.52,1.2.12,2.71,1.84,2.37,2.81-.54,1.54-1.99,2.61-3.2,2.45-1.54-.21-2.33-1.71-2.19-3.73Z"/>
          <path class="st113" d="M95.34,446.63c.73-.15.76.6.81,1.03s.04,1.05-.76,1.4c-.5.22-1-.74-1.22-1.35-.18-.49.24-.89,1.16-1.08Z"/>
        </g>
      </g>
      <path class="st66" d="M429.92,411.45c-2.04,11.58-6.57,22.71-12.25,33.29-.3.52-.3.95.31,1.15l-.58,1.09c-8.52,15.91-20.55,29.73-34.99,40.77-10.4,7.95-22.1,14.2-34.31,18.76-.49-3.65.77-7.12,3-10.19,4.14-5.72,2.04-11.38,4.17-15.53,2.45-4.77,7.45-7.89,10.5-14.33l3.97-8.4c.6-1.26.33-3.2.45-4.27,2.94-4.49,5.86-3.58,10.39-9.83l9.59-13.23c-.51-.33-.24-.64-.07-.78.11.1,1.09-.07,1.21-.5l12.35-48.03,12.13-48.07c1.17.15,2.68.63,2.48,2.51.27-.27.87-.56,1.32-.59.16-.01.47.47-.21.82.94,3.17,1.68,6.57,3.65,9.27,1.35,1.85,1.43,4.38,2.16,6.75.95,3.06,2.55,6.23,2.47,9.79-.15,6.55,1.93,9.99,1.95,10.88l.1,4.62-.05,18.99c0,2.22-2.8,11.5-.99,13.9.22.29.64.48.55.88-.05.21.53.46.7.32Z"/>
      <path class="st58" d="M293.04,515.24c.06.18.02.72.23,1.15l6.89.05v7.4c-3.3-.07-6.53.51-9.2-.73-1.14-.53-2.12-.68-3.14.21-10.99-.73-21.86-3.15-32.19-6.07-.21-.93-.2-1.12.1-2.04l1.69-5.26c-10.68-3.3-20.26-7.47-29.5-13.28-1.47-.92-3.64-1.44-3.53-3.37,19.77,13.25,43.69,20.86,68.65,21.95Z"/>
      <path class="st200" d="M433.04,399.38l-1.89,10.82-2.37,9.39c-2.33,9.21-6.31,17.92-10.8,26.31-.61-.2-.61-.63-.31-1.15,5.68-10.58,10.21-21.71,12.25-33.29l1.98-11.27.87-7.33.33-21.46-.72-1.46c-.21-.42.16-.86.68-1.01.14-.03.49-.01.62.23.24,2.22-.45,4.97.31,6.98.61,1.61.14,2.85.15,4.32,0,2.06.66,4.51-.18,6.91l-.51,6.94-.4,5.07Z"/>
      <path class="st30" d="M325.68,330.07l3.49,4.78c3.2,5.57,4.36,12.23,4.06,19.27l-20.07.43c-.58-.27-.44-1.8-.49-2.37.31-.05.58-.06.78.04.3.16.26.68.82,1.21-.01-3.04-.82-6.37-2.67-9.25-3.67-5.72-12.09-6.44-17.12-2.01-.2.17.44,1.03.6,1.21-4.44,4.4-3.07,11.71,2.2,15.29l12.82,6.48c5.68,2.87,11.32,5.26,16.19,9.45,14.84,12.78,13.19,38.71-1.51,50.34-7.87,6.23-18.03,7.69-27.89,6.76-13.86-1.31-24.55-10.83-27.55-23.99-.87-3.81-1.58-7.94-1.11-11.95,1.02.69,2.23.65,3.67.67l15.87.16.17,5.57c2.16,7.11,7.86,12.85,16.42,11.71,5.12-.68,9.21-4.63,10.66-9.39,2.08-6.84-2.24-13.6-8.63-16.92l-18.1-9.39c-5.78-3-10.6-7.67-13.42-13.37l-2.82-9.01c-.37,4.32,1.66,7.98,3.01,11.67-.3.22-.52.23-.62.19-5.35-9.86-4.95-22.32.05-32.39,3.52-3.91,6.76-8.05,12.07-10.37,9.71-4.26,20.98-4.29,30.77-.18,3.41,1.43,5.68,3.79,8.34,5.37Z"/>
      <path class="st29" d="M415.76,333.33l-12.13,48.07c-.24.08-.67.16-.9.06-.4-.18-.11-.81-.63-1.26.06,1.02.2,1.56-.88,2.2.54.23.72.7.37,1.27-.17.28-.31.66-.94,1.18.18.16.69.97.45,1.22l-.98,1.05.39,1.51c.09.36-.83.48-1.14.58.73.9.42,1.48.45,1.9.03.33-1.24.51-1.11.81.33.79.6,1.19.49,1.67-.09.44-.25.88-1.14,1.28.56.29.73.83.61,1.26-.1.34-1.22.48-1.18.84.06.52.7,1.53.52,1.66l-1.17.81c-.28.19.43.98.56,1.12.2.21-.94.57-.89.86l.32,1.64c.13.66-.31,1.42-1.18,1.76-.04.13.41.56.41.76,0,.34-.27.95-1.13,1.11.55.35.68.84.6,1.3-.11.7-.99.45-1.08.59.37.93.44,1.55.4,1.93-.04.34-.96.37-1.12.64.28,2,.14,4.86-1.21,5.5.19.2.46.56.49.81.07.6-.14,1.15-1.2,1.01.58.52.66.85.7,1.42.06.84-.73,1.01-1.34,1.43l.6,1.18c.18.35-.1,1.01-1.22,1.09.67.22,1.19,1.81-.38,1.72.07.94.21,2.56.08,3.58l-24.29-.03-10.92-42.39-16.24-63.12,21.47.07,3.46,13.8,3.28,13.57,5.19,21.92,2.45,10.68,3.75,17.63c1.06-2.06.6-3.9,1.03-5.83l8.06-36.16,8.11-34.36c.52-.15.82-.41.81-1.27l14.25-.05,2.12-.25c1.61-.19,3.18.12,5.52-.18l-2.53,10.41Z"/>
      <path class="st26" d="M274.44,367.64c2.85,5.25,7.59,9.17,12.91,12.09l6.07,3.32c7.79,4.26,19,7.37,20.29,16.38.58,4.03-.35,7.83-3.54,10.4-5.3,4.27-13.74,3-17.69-2.62-2.65-3.79-2.86-8.08-3.02-12.59l-19.43.03c-.43,0-1.07.03-1.28.16-.26.16-.47.51-.52.95-.47,4.01.24,8.14,1.11,11.95-.21.08-.72.14-.89-.04-.33-.33-.45-1.21-.54-1.65l-1.28-6.59c-1.71.3-1.99-1.2-2.9-1.12l.13-5.04-20.77.18-.85,6.98c-.63,5.16-2.86,9.84-8.12,11.17-4.65,1.18-9.98-.91-12.33-5.66-1.3-2.62-2.09-5.48-2.09-8.49v-40.75c.01-8.57,4.36-15.47,11.92-15.17,8.33.33,11.05,7.78,11.21,16.5.96.25,1.66.17,2.36.16l18.39-.31-.87-10.4c1.02.54,1.73.59,2.41-.38,3-4.26,6.09-8.19,9.4-11.87-5,10.07-5.41,22.53-.05,32.39Z"/>
      <path class="st70" d="M197.56,398.97c.55,6.18,2.23,12.12,5.33,17.43-2.09-.48-3.95-6-5.02-9.73-2.62-1.44-6.96,3.38-6.87,7.1,1.05.17.87.8-.13.75-1.41-.26-2.57-.14-2.85.81h-9.21c-.63,0-.67,1.04-.61,1.34-.61.66-.82,1.61-.87,2.67l-.35,7.09c-1.61-.02.14-4.03-1.01-7.57-.51,3.43-.04,6.42-.73,9.49-.85-.07-1.01-.6-1.09-.89-.07-.26-.91.24-1.07.27l-.61-1.82c-3.67-10.92-5.98-22.34-6.76-33.91.28-.06.75-.12.93.04.22.19.42.66.59,1.7l4.9-2.78c2.19-1.24,3.49-2.38,3.74-5.22.22-2.47,5.74-5.84,7.15-10.38l3.81-4.43.57-4.58c.14-1.13.31-2.38-.22-3.59,1.64-1.1,1.84-3.23,2.73-4.77,1.38-2.36,3.82-5.15,3.96-7.74,1.04-.37,1.77-1.67,2.35-2.67,1.84-.79,1.46,2.22-.19,6.21.8,3.24-.49,6.58-.45,10.07l.33,30.43c.02,1.68.9,3.31.28,5.35l1.37-.67Z"/>
      <path class="st107" d="M165.7,392c-.74-10.89.15-21.79,1.75-32.55.38-.21,1.11.32.88.45s-.33,1.39-.06,1.43c3.66.51,7.54-.66,10.57.78,1.42.67,2.92-.81,4.32-1.9l5.69-4.42c1.88-1.46,2.51-4.65,5-5.54-.15,2.59-2.58,5.38-3.96,7.74-.9,1.54-1.1,3.66-2.73,4.77.53,1.2.36,2.45.22,3.59l-.57,4.58-3.81,4.43c-1.4,4.54-6.92,7.91-7.15,10.38-.26,2.84-1.55,3.98-3.74,5.22l-4.9,2.78c-.17-1.04-.37-1.51-.59-1.7-.18-.16-.65-.1-.93-.04Z"/>
      <path class="st138" d="M393.51,326.59l-2.51,3.63c-1.51,2.18-2.75,4.73-3.5,7.33s-4.72,2.63-2.27,5.27c-2.24,1.68-2.48,4.11-3.24,6.14l-2.13,5.61-1.3,5.59c-.4-.52-.74-.97-1.11-.99l-1.91-.1-5.43.65-1.77-7.21c-.08-.31-.21-.96-.23-1.31-.03-.36-.75-.59-1.1-.44l-3.28-13.57c1.08.24,1.73.03,2.78-.47,8.81-4.2,17.88-7.21,27.02-10.14Z"/>
      <path class="st37" d="M374.63,383.37c6.33-3.44,3.1-15.07,10.37-17.95-.52-1.52-.15-1.96.06-2.78l2.62-9.95c.67-2.55,2.24-6.47.86-7.88,1.02-.43,1.4-.91,1.35-1.18l-.26-1.53c1.21-1.7,1.1-4.52,1.58-6.03l1.23-3.92c.16-.52.02-1.04-.22-1.31-.21-.24-.53-.43-1.23-.63l2.51-3.63c.41-.59,1.35-1.72,2.07-1.93l-8.11,34.36-8.06,36.16c-.43,1.93.03,3.77-1.03,5.83l-3.75-17.63Z"/>
      <path class="st186" d="M197.56,398.97l-1.37.67c.62-2.03-.27-3.67-.28-5.35l-.33-30.43c-.04-3.49,1.25-6.83.45-10.07,1.64-4,2.03-7,.19-6.21-.17-.4-.54-.98-.21-1.14l1.55-.76,3.61-6.08c-2.57,6.86-4,14.59-4.04,22.5l-.17,34.75c.83.6.55,1.54.6,2.12Z"/>
      <path class="st204" d="M334.64,328.48l-3.45,5.91c-.17.09-.72-.3-.89-.26-.29.06-.61.43-1.13.72l-3.49-4.78c.92.55,2,1.31,2.7,1.94l6.26-3.53Z"/>
      <path class="st207" d="M408.11,315.23c-.51.15-1.45.16-1.74-.37l-.8-1.47-5.18-9.37c.1-.65.65-.72.99-.24l2.31,3.27,4.42,8.18Z"/>
      <path class="st72" d="M172,340.25l1.81-5.05c.75.07.67.57.7.96.03.48-.4.89-.55,1.12-.09,1.34-.58,3.08-1.96,2.96Z"/>
      <path class="st181" d="M185.69,310.85l3.04-4.44c1.17.15-1.34,4.68-3.04,4.44Z"/>
      <path class="st79" d="M178.85,323.36l2.72-4.42c.21,1.13-.72,2.25-1.34,3.37-.08.24-.11.92-.46,1.05-.23.08-.64.05-.93.01Z"/>
      <path class="st185" d="M170.03,347.11l1.02-3.85c.77,0,1.19.5.97,1.04l-.59,1.44c-.27.66-.15,1.21-.39,1.35-.22.13-.71.07-1.01.02Z"/>
      <path class="st105" d="M410.04,319.14c-.79.16-1.94.07-1.92-1.05,0-.47.34-.99.66-1.65.77.5,1.12,1.75,1.26,2.7Z"/>
      <path class="st52" d="M194.37,298.3c.89-1.07,1.92-2.4,3.19-3.03.04,1.46-1.71,3.09-3.19,3.03Z"/>
      <path class="st41" d="M182.93,315.76l.1-.4,1.31-2.07c.91.51.19,1.23,0,1.67s-.89,1.12-1.42.8Z"/>
      <path class="st157" d="M168.17,354.59l.68-2.49c.84.14.67.88.66,1.55-.02.84-.43,1.2-1.34.94Z"/>
      <path class="st125" d="M192.52,300.83c.42-.76,1.16-1.45,1.87-1.96.16.5.15.94-.22,1.39-.43.51-.89.79-1.65.57Z"/>
      <path class="st146" d="M189.97,305.22c-.33-1.13.89-1.43,1.49-1.74-.38.51-.21,1.78-1.49,1.74Z"/>
      <path class="st132" d="M191.46,303.48c.08-.72-.03-1.89,1.06-2.09.51,1.06-.67,1.57-1.06,2.09Z"/>
      <path class="st214" d="M188.22,430.8l-11.22.11-.03-4.47.35-7.09c.05-1.07.26-2.02.87-2.67l11.84.35.42,12.61c-1.13-.26-1.91-.07-2.21.2-.19.17-.11.72-.02.97Z"/>
      <g>
        <path class="st183" d="M390.14,430.71l-9.59,13.23c-4.53,6.25-7.45,5.34-10.39,9.83-.13,1.07.14,3.01-.45,4.27l-3.97,8.4c-3.04,6.44-8.05,9.56-10.5,14.33-2.13,4.15-.02,9.82-4.17,15.53-2.23,3.08-3.48,6.54-3,10.19-17.27,6.44-36.28,9.56-55.05,8.74-24.96-1.09-48.87-8.7-68.65-21.95-22.52-15.08-39.93-36.85-50.05-61.82l-1.27-3.74c.15-.03.99-.53,1.07-.27.08.29.24.81,1.09.89.69-3.07.22-6.06.73-9.49,1.15,3.54-.6,7.55,1.01,7.57l.03,4.47,11.22-.11,3.12-.05.12-15.1c-1.3-.41-2.42-.32-3.44-.32.28-.95,1.44-1.07,2.85-.81,1,.05,1.18-.58.13-.75-.09-3.73,4.25-8.55,6.87-7.1,1.08,3.73,2.93,9.25,5.02,9.73,3.29,5.32,8.24,9.91,14.01,12.58,0,.2-.05.68.07.9.13.24.65.43,1.05.57,9.03,3.15,19.1,3.29,27.81-.65,3.57-1.61,6.9-3.42,9.29-6.45,1.78-2.26,3.26-4.07,3.97-6.37,1.86-6.01,4.49-12.04,4.66-18.67.92-.08,1.2,1.42,2.9,1.12l1.28,6.59c.08.44.21,1.31.54,1.65.17.17.68.12.89.04,3,13.16,13.68,22.68,27.55,23.99,9.86.93,20.02-.53,27.89-6.76,14.7-11.63,16.35-37.56,1.51-50.34-4.87-4.19-10.51-6.58-16.19-9.45l-12.82-6.48c-5.26-3.58-6.64-10.9-2.2-15.29,3.47-2.77,7.86-3.08,11.92-1.07,3.4,1.69,5.33,6.21,5.67,9.88.05.56-.09,2.09.49,2.37l20.07-.43c.3-7.04-.85-13.7-4.06-19.27.53-.29.84-.66,1.13-.72.18-.04.72.36.89.26l3.45-5.91c.83-1.43,1.53-2.93,2.8-4.02.13,1.97.63,3.76,1.19,5.87l13.86,53,12.09,47.38h25.58Z"/>
        <path class="st221" d="M338.78,323.32l16.24,63.12,10.92,42.39,24.29.03c-.02.29.26.71-.16,1.06-.16.14-.43.45.07.78h-25.58s-12.09-47.38-12.09-47.38l-13.86-53c-.55-2.11-1.06-3.9-1.19-5.87.37-.32.53-1.14,1.34-1.14Z"/>
        <path class="st222" d="M331.15,378l-7.67-6.98c-.8-.73-2.27-.63-2.99-2.36,3.57-2.93,6.41-6.61,9.49-10.48,1.03-1.29,3.5,3.3,4.8,1.36.9,4.6-.48,8.36-1.45,12.65-.44,1.95-.3,4.12-2.19,5.81Z"/>
      </g>
      <path class="st86" d="M312.66,352.18c-.34-3.66-2.27-8.18-5.67-9.88-4.06-2.02-8.44-1.7-11.92,1.07-.16-.18-.8-1.03-.6-1.21,5.03-4.43,13.45-3.71,17.12,2.01,1.85,2.88,2.65,6.21,2.67,9.25-.56-.53-.52-1.05-.82-1.21-.2-.1-.47-.09-.78-.04Z"/>
      <path class="st9" d="M188.02,415.33c1.03,0,2.14-.09,3.44.32l-.12,15.1-3.12.05c-.09-.25-.18-.8.02-.97.31-.27,1.08-.46,2.21-.2l-.42-12.61-11.84-.35c-.06-.29-.02-1.34.61-1.34h9.21Z"/>
      <path class="st74" d="M403.63,381.39l-12.35,48.03c-.11.43-1.1.6-1.21.5.41-.36.14-.78.16-1.06.14-1.01-.01-2.64-.08-3.58,1.57.09,1.05-1.5.38-1.72,1.13-.07,1.4-.74,1.22-1.09l-.6-1.18c.6-.42,1.39-.59,1.34-1.43-.04-.56-.12-.89-.7-1.42,1.06.14,1.27-.41,1.2-1.01-.03-.25-.3-.62-.49-.81,1.36-.64,1.49-3.5,1.21-5.5.16-.27,1.08-.3,1.12-.64.04-.39-.03-1-.4-1.93.1-.14.98.11,1.08-.59.07-.46-.05-.95-.6-1.3.86-.16,1.14-.77,1.13-1.11,0-.21-.45-.63-.41-.76.87-.34,1.31-1.1,1.18-1.76l-.32-1.64c-.06-.28,1.08-.65.89-.86-.13-.14-.85-.92-.56-1.12l1.17-.81c.18-.13-.46-1.13-.52-1.66-.04-.36,1.08-.49,1.18-.84.12-.43-.05-.97-.61-1.26.89-.4,1.05-.85,1.14-1.28.1-.48-.16-.88-.49-1.67-.13-.3,1.14-.48,1.11-.81-.03-.42.28-1-.45-1.9.31-.09,1.24-.22,1.14-.58l-.39-1.51.98-1.05c.24-.25-.27-1.07-.45-1.22.63-.52.77-.91.94-1.18.35-.56.17-1.03-.37-1.27,1.09-.64.94-1.17.88-2.2.52.45.23,1.08.63,1.26.23.1.67.02.9-.06Z"/>
      <path class="st49" d="M268.23,395.76c.05-.44.26-.79.52-.95.22-.13.86-.16,1.28-.16l19.43-.03c.16,4.51.37,8.8,3.02,12.59,3.94,5.62,12.39,6.89,17.69,2.62,3.19-2.57,4.11-6.37,3.54-10.4-1.29-9.01-12.5-12.12-20.29-16.38l-6.07-3.32c-5.33-2.91-10.07-6.84-12.91-12.09.1.04.32.03.62-.19-1.35-3.69-3.38-7.35-3.01-11.67l2.82,9.01c2.81,5.7,7.64,10.37,13.42,13.37l18.1,9.39c6.4,3.32,10.72,10.08,8.63,16.92-1.45,4.76-5.54,8.72-10.66,9.39-8.56,1.13-14.26-4.6-16.42-11.71l-.17-5.57-15.87-.16c-1.45-.01-2.66.03-3.67-.67Z"/>
      <path class="st47" d="M374.63,383.37l-2.45-10.68c5.16-.79,6.43-6.45,8.7-8.94,1.44-1.57.67-4.22,1.25-5.71.42-1.08,1.14-1.34,1.16-2.87l2.05-4.63c.3-.67-1.92-2.1-.89-3.1l2.18-2.13c1.41-2.53,2.19-5.58.87-7.76.75-2.6,1.99-5.15,3.5-7.33.7.2,1.02.39,1.23.63.23.27.38.79.22,1.31l-1.23,3.92c-.48,1.51-.36,4.33-1.58,6.03l.26,1.53c.05.27-.33.75-1.35,1.18,1.38,1.41-.19,5.33-.86,7.88l-2.62,9.95c-.22.82-.59,1.26-.06,2.78-7.26,2.88-4.04,14.51-10.37,17.95Z"/>
      <path class="st162" d="M372.18,372.69l-5.19-21.92c.35-.16,1.08.07,1.1.44s.16,1,.23,1.31l1.77,7.21,5.43-.65,1.91.1c.36.02.71.47,1.11.99l1.3-5.59,2.13-5.61c.77-2.02,1-4.45,3.24-6.14-2.45-2.64,1.55-2.79,2.27-5.27,1.32,2.17.54,5.22-.87,7.76l-2.18,2.13c-1.03,1,1.19,2.43.89,3.1l-2.05,4.63c-.02,1.54-.74,1.79-1.16,2.87-.58,1.5.18,4.14-1.25,5.71-2.27,2.49-3.54,8.15-8.7,8.94Z"/>
      <g>
        <path class="st51" d="M262.69,347.5l.87,10.4-18.39.31c-.04-.18-.1-.57.02-.71.18-.22.77-.15,1.1-.16l15.06-.56-16.91-.49-1.44-6.46c-.94-4.23-3.54-7.28-6.64-8.8-4.44-2.18-8.03-.57-11.84.44-4.54,1.2-4.13,6.69-6.37,9.18.03.83.52,1.01.67,1.21.16.21,0,1.35-1.03.93l-.06,35.53c0,5.51.06,10.7,1.45,15.84,1.54,5.73,6.59,9.73,12.38,9.4,8.98-.52,12.34-9.3,12.07-18.5l18.67-.05c-.12,10.97-3.02,22.12-11.32,28.67.95.11.95.76,1.21,1.17-8.97,7.69-24.63,9.11-35.29,4.17-5.77-2.67-10.71-7.27-14.01-12.58-3.1-5.31-4.78-11.25-5.33-17.43-.05-.58.23-1.52-.6-2.12l.17-34.75c.04-7.91,1.47-15.63,4.04-22.5l1.45-1.22c1.38-2.99,3.55-5.46,5.76-7.84.23-.13.54-.19.76-.31.32-.16.44-.49.48-.71,6.65-5.82,15.33-8.13,24.35-7.69,14.87.73,26.3,11.22,28.73,25.66Z"/>
        <g>
          <path class="st203" d="M202.61,338.37l-1.45,1.22c.17-.29-.25-.99.51-1.23.29-.09.65-.04.94,0Z"/>
          <path class="st118" d="M209.61,329.52c-.03.21-.16.54-.48.71-.22.11-.53.18-.76.31-.36-.46-.04-.92.37-1.22.22-.16.54-.61.86.2Z"/>
          <path class="st98" d="M245.16,358.2c-.7.01-1.39.08-2.36-.16-.16-8.72-2.88-16.17-11.21-16.5-7.55-.3-11.9,6.6-11.91,15.17v40.75c0,3,.78,5.87,2.08,8.49,2.35,4.75,7.69,6.84,12.33,5.66,5.26-1.33,7.49-6.01,8.12-11.17l.85-6.98,20.77-.18-.13,5.04c-.17,6.63-2.79,12.66-4.66,18.67-2.13,2.96-4.34,5.65-6.89,7.83-.26-.41-.27-1.06-1.21-1.17,8.31-6.55,11.2-17.7,11.32-28.67l-18.67.05c.27,9.2-3.09,17.98-12.07,18.5-5.79.33-10.84-3.67-12.38-9.4-1.38-5.14-1.46-10.33-1.45-15.84l.06-35.53c1.03.42,1.2-.72,1.03-.93-.15-.19-.63-.38-.67-1.21,2.24-2.49,1.83-7.97,6.37-9.18,3.81-1.01,7.4-2.62,11.84-.44,3.1,1.52,5.7,4.58,6.64,8.8l1.44,6.46,16.91.49-15.06.56c-.33.01-.93-.05-1.1.16-.12.15-.06.53-.02.71Z"/>
          <path class="st33" d="M216.89,428.98c10.67,4.94,26.33,3.52,35.29-4.17,2.54-2.18,4.75-4.87,6.89-7.83-.71,2.3-2.18,4.1-3.97,6.37-2.39,3.03-5.72,4.84-9.29,6.45-8.71,3.94-18.77,3.8-27.81.65-.4-.14-.91-.32-1.05-.57-.12-.22-.06-.7-.07-.9Z"/>
          <path class="st98" d="M245.68,427.06c.64-.94,2.3-1.67,3.78-1.82-.83,1.43-2.43,1.95-3.78,1.82Z"/>
          <path class="st98" d="M245.68,427.06c-.7,1.14-2,1.07-3.03,1.47.78-1.28,1.91-1.57,3.03-1.47Z"/>
          <path class="st98" d="M242.65,428.52c-.61.23-1.3.94-2.1-.04l2.1.04Z"/>
        </g>
      </g>
    </g>
  </g>
</svg>