<svg xmlns="http://www.w3.org/2000/svg" viewBox="0 0 1254 1254" role="img" aria-label="Clean native vector logo">
  <path fill="#00006c" d="M181 916h42c58 0 87-29 87-87V428c0-151 137-273 317-273s317 122 317 273v401c0 58 29 87 87 87h42c7 0 12 5 12 12v66c0 7-5 12-12 12h-49c-100 0-170-69-170-177V443c0-114-100-201-227-201s-227 87-227 201v386c0 108-70 177-170 177h-49c-7 0-12-5-12-12v-66c0-7 5-12 12-12z"/>
  <circle fill="#00006c" cx="520" cy="514" r="45"/>
  <circle fill="#00006c" cx="734" cy="514" r="45"/>
  <path fill="#00006c" d="M488 613c-14 0-25 11-25 25v274c0 48-22 77-58 86-7 2-11 7-11 14v59c0 7 5 12 12 12 82-4 151-72 151-162V771c0-5 6-7 9-4l53 56c5 6 13 6 18 0l53-56c3-3 9-1 9 4v150c0 90 69 158 151 162 7 0 12-5 12-12v-59c0-7-4-12-11-14-36-9-58-38-58-86V638c0-14-11-25-25-25h-16c-7 0-13 3-18 8L632 723c-3 3-7 3-10 0L520 621c-5-5-11-8-18-8z"/>
</svg>
